<svg width="24" height="25" viewBox="0 0 24 25" fill="none" xmlns="http://www.w3.org/2000/svg">
<path opacity="0.2" d="M21 12.5C21.0013 13.7621 20.7365 15.0104 20.2228 16.1633C19.7091 17.3162 18.9581 18.3479 18.0188 19.1909C17.454 18.0801 16.5927 17.1472 15.5304 16.4958C14.4681 15.8443 13.2462 15.4996 12 15.5C12.7417 15.5 13.4667 15.28 14.0834 14.868C14.7001 14.4559 15.1807 13.8702 15.4646 13.185C15.7484 12.4998 15.8226 11.7458 15.6779 11.0184C15.5333 10.2909 15.1761 9.62276 14.6517 9.09831C14.1272 8.57387 13.459 8.21671 12.7316 8.07202C12.0042 7.92732 11.2502 8.00159 10.5649 8.28541C9.87972 8.56924 9.29405 9.04989 8.88199 9.66657C8.46994 10.2833 8.25 11.0083 8.25 11.75C8.25 12.7445 8.64509 13.6984 9.34835 14.4016C10.0516 15.1049 11.0054 15.5 12 15.5C10.7538 15.4996 9.5319 15.8443 8.46958 16.4958C7.40725 17.1472 6.54601 18.0801 5.98125 19.1909C4.86586 18.1876 4.01896 16.9215 3.51756 15.5075C3.01615 14.0936 2.87615 12.5767 3.11028 11.0949C3.34442 9.61308 3.94526 8.21329 4.85817 7.02281C5.77108 5.83234 6.9671 4.88896 8.33747 4.27845C9.70784 3.66794 11.2091 3.40968 12.7047 3.52714C14.2003 3.64461 15.6428 4.13408 16.9011 4.95103C18.1593 5.76799 19.1934 6.88653 19.9093 8.20492C20.6251 9.52332 21.0001 10.9998 21 12.5Z" fill="#1A1A1A"/>
<path d="M12 2.75C10.0716 2.75 8.18657 3.32183 6.58319 4.39317C4.97982 5.46451 3.73013 6.98726 2.99218 8.76884C2.25422 10.5504 2.06114 12.5108 2.43735 14.4021C2.81355 16.2934 3.74215 18.0307 5.10571 19.3943C6.46928 20.7579 8.20656 21.6865 10.0979 22.0627C11.9892 22.4389 13.9496 22.2458 15.7312 21.5078C17.5127 20.7699 19.0355 19.5202 20.1068 17.9168C21.1782 16.3134 21.75 14.4284 21.75 12.5C21.7473 9.91498 20.7192 7.43661 18.8913 5.60872C17.0634 3.78084 14.585 2.75273 12 2.75ZM6.945 19.0156C7.48757 18.1671 8.23501 17.4688 9.11843 16.9851C10.0019 16.5013 10.9928 16.2478 12 16.2478C13.0072 16.2478 13.9982 16.5013 14.8816 16.9851C15.765 17.4688 16.5124 18.1671 17.055 19.0156C15.6097 20.1397 13.831 20.7499 12 20.7499C10.169 20.7499 8.39032 20.1397 6.945 19.0156ZM9 11.75C9 11.1567 9.17595 10.5766 9.5056 10.0833C9.83524 9.58994 10.3038 9.20542 10.852 8.97836C11.4001 8.7513 12.0033 8.69189 12.5853 8.80764C13.1672 8.9234 13.7018 9.20912 14.1213 9.62868C14.5409 10.0482 14.8266 10.5828 14.9424 11.1647C15.0581 11.7467 14.9987 12.3499 14.7716 12.8981C14.5446 13.4462 14.1601 13.9148 13.6667 14.2444C13.1734 14.5741 12.5933 14.75 12 14.75C11.2044 14.75 10.4413 14.4339 9.87868 13.8713C9.31607 13.3087 9 12.5456 9 11.75ZM18.165 17.9759C17.3285 16.7638 16.1524 15.8261 14.7844 15.2806C15.5192 14.7019 16.0554 13.9085 16.3184 13.0108C16.5815 12.1132 16.5582 11.1559 16.252 10.2721C15.9457 9.38825 15.3716 8.62183 14.6096 8.0794C13.8475 7.53696 12.9354 7.24548 12 7.24548C11.0646 7.24548 10.1525 7.53696 9.39044 8.0794C8.62839 8.62183 8.05432 9.38825 7.74805 10.2721C7.44179 11.1559 7.41855 12.1132 7.68157 13.0108C7.94459 13.9085 8.4808 14.7019 9.21563 15.2806C7.84765 15.8261 6.67147 16.7638 5.835 17.9759C4.77804 16.7873 4.0872 15.3185 3.84567 13.7464C3.60415 12.1743 3.82224 10.5658 4.47368 9.11478C5.12512 7.66372 6.18213 6.43192 7.51745 5.56769C8.85276 4.70346 10.4094 4.24367 12 4.24367C13.5906 4.24367 15.1473 4.70346 16.4826 5.56769C17.8179 6.43192 18.8749 7.66372 19.5263 9.11478C20.1778 10.5658 20.3959 12.1743 20.1543 13.7464C19.9128 15.3185 19.222 16.7873 18.165 17.9759Z" fill="#1A1A1A"/>
</svg>
