<svg width="12" height="12" viewBox="0 0 12 12" fill="none" xmlns="http://www.w3.org/2000/svg">
<path d="M11.097 5.8166C11.097 5.99065 11.0279 6.15756 10.9048 6.28063C10.7817 6.4037 10.6148 6.47284 10.4408 6.47284H6.28455V10.6291C6.28455 10.8031 6.21541 10.97 6.09234 11.0931C5.96927 11.2162 5.80235 11.2853 5.62831 11.2853C5.45426 11.2853 5.28734 11.2162 5.16427 11.0931C5.0412 10.97 4.97206 10.8031 4.97206 10.6291V6.47284H0.815851C0.641804 6.47284 0.474886 6.4037 0.351816 6.28063C0.228747 6.15756 0.159607 5.99065 0.159607 5.8166C0.159607 5.64255 0.228747 5.47563 0.351816 5.35257C0.474886 5.2295 0.641804 5.16036 0.815851 5.16036H4.97206V1.00414C4.97206 0.830098 5.0412 0.663179 5.16427 0.54011C5.28734 0.41704 5.45426 0.3479 5.62831 0.3479C5.80235 0.3479 5.96927 0.41704 6.09234 0.54011C6.21541 0.663179 6.28455 0.830098 6.28455 1.00414V5.16036H10.4408C10.6148 5.16036 10.7817 5.2295 10.9048 5.35257C11.0279 5.47563 11.097 5.64255 11.097 5.8166Z" fill="#1A1A1A"/>
</svg>
