<svg width="22" height="18" viewBox="0 0 22 18" fill="none" xmlns="http://www.w3.org/2000/svg">
<path d="M19.25 0.375H2.75C2.25272 0.375 1.77581 0.572544 1.42417 0.924175C1.07254 1.27581 0.875 1.75272 0.875 2.25V15.75C0.875 16.2473 1.07254 16.7242 1.42417 17.0758C1.77581 17.4275 2.25272 17.625 2.75 17.625H19.25C19.7473 17.625 20.2242 17.4275 20.5758 17.0758C20.9275 16.7242 21.125 16.2473 21.125 15.75V2.25C21.125 1.75272 20.9275 1.27581 20.5758 0.924175C20.2242 0.572544 19.7473 0.375 19.25 0.375ZM18.875 15.375H3.125V2.625H18.875V15.375ZM6.125 5.25C6.125 4.95163 6.24353 4.66548 6.4545 4.4545C6.66548 4.24353 6.95163 4.125 7.25 4.125C7.54837 4.125 7.83452 4.24353 8.0455 4.4545C8.25647 4.66548 8.375 4.95163 8.375 5.25C8.375 5.94619 8.65156 6.61387 9.14384 7.10616C9.63613 7.59844 10.3038 7.875 11 7.875C11.6962 7.875 12.3639 7.59844 12.8562 7.10616C13.3484 6.61387 13.625 5.94619 13.625 5.25C13.625 4.95163 13.7435 4.66548 13.9545 4.4545C14.1655 4.24353 14.4516 4.125 14.75 4.125C15.0484 4.125 15.3345 4.24353 15.5455 4.4545C15.7565 4.66548 15.875 4.95163 15.875 5.25C15.875 6.54293 15.3614 7.78291 14.4471 8.69715C13.5329 9.61139 12.2929 10.125 11 10.125C9.70707 10.125 8.46709 9.61139 7.55285 8.69715C6.63861 7.78291 6.125 6.54293 6.125 5.25Z" fill="white"/>
</svg>
