<svg width="24" height="21" viewBox="0 0 24 21" fill="none" xmlns="http://www.w3.org/2000/svg">
<path d="M22.5 18.1252H21.375V9.83305C21.3746 9.57417 21.3208 9.31815 21.2169 9.08102C21.113 8.84389 20.9613 8.63074 20.7712 8.45493L13.2759 1.37961L13.2609 1.36555C12.9165 1.05032 12.4665 0.875488 11.9995 0.875488C11.5326 0.875488 11.0826 1.05032 10.7381 1.36555L10.7222 1.37961L3.22875 8.45493C3.03872 8.63074 2.88702 8.84389 2.78313 9.08102C2.67924 9.31815 2.62541 9.57417 2.625 9.83305V18.1252H1.5C1.20163 18.1252 0.915483 18.2438 0.704505 18.4547C0.493526 18.6657 0.375 18.9519 0.375 19.2502C0.375 19.5486 0.493526 19.8348 0.704505 20.0457C0.915483 20.2567 1.20163 20.3752 1.5 20.3752H22.5C22.7984 20.3752 23.0845 20.2567 23.2955 20.0457C23.5065 19.8348 23.625 19.5486 23.625 19.2502C23.625 18.9519 23.5065 18.6657 23.2955 18.4547C23.0845 18.2438 22.7984 18.1252 22.5 18.1252ZM4.875 9.99524L12 3.26868L19.125 9.99524V18.1252H15.375V14.0002C15.375 13.754 15.3265 13.5102 15.2323 13.2827C15.138 13.0552 14.9999 12.8485 14.8258 12.6744C14.6517 12.5003 14.445 12.3622 14.2175 12.268C13.99 12.1737 13.7462 12.1252 13.5 12.1252H10.5C10.0027 12.1252 9.52581 12.3228 9.17418 12.6744C8.82254 13.026 8.625 13.503 8.625 14.0002V18.1252H4.875V9.99524ZM13.125 18.1252H10.875V14.3752H13.125V18.1252Z" fill="#1A1A1A"/>
</svg>
