<svg width="44" height="20" viewBox="0 0 44 20" fill="none" xmlns="http://www.w3.org/2000/svg">
<path d="M8.03964 3.15665C7.52402 3.77642 6.69885 4.26543 5.87376 4.19551C5.77063 3.3575 6.17454 2.46695 6.64728 1.91692C7.16291 1.27969 8.06542 0.825688 8.79598 0.790771C8.88192 1.66378 8.54667 2.51933 8.03964 3.15665ZM8.78738 4.36145C7.59268 4.29161 6.56994 5.05106 6.00267 5.05106C5.42688 5.05106 4.55874 4.39637 3.61335 4.41382C2.38435 4.43128 1.24121 5.13835 0.613783 6.26459C-0.675452 8.51698 0.278626 11.852 1.52481 13.6853C2.13505 14.5932 2.8656 15.5884 3.82819 15.5535C4.7393 15.5186 5.10024 14.9512 6.20041 14.9512C7.30909 14.9512 7.62714 15.5535 8.58973 15.536C9.58669 15.5186 10.2141 14.6282 10.8244 13.7202C11.5205 12.6901 11.8041 11.686 11.8213 11.6337C11.8041 11.6162 9.89615 10.8742 9.87896 8.63919C9.86178 6.77097 11.383 5.8805 11.4518 5.82813C10.5922 4.53603 9.25153 4.39637 8.78738 4.36145ZM15.689 1.82963V15.4401H17.7689V10.7869H20.6481C23.2781 10.7869 25.126 8.95362 25.126 6.29959C25.126 3.64565 23.3125 1.82972 20.7169 1.82972H15.6889L15.689 1.82963ZM17.7689 3.61065H20.1668C21.9717 3.61065 23.0031 4.58841 23.0031 6.30823C23.0031 8.02806 21.9717 9.01463 20.1582 9.01463H17.7689V3.61065ZM28.9249 15.5448C30.2313 15.5448 31.4431 14.8726 31.9932 13.8075H32.0361V15.44H33.9614V8.66538C33.9614 6.70113 32.4144 5.43523 30.0335 5.43523C27.8247 5.43523 26.1917 6.71859 26.1315 8.48207H28.0052C28.1599 7.64398 28.9248 7.09395 29.9734 7.09395C31.2454 7.09395 31.9588 7.69635 31.9588 8.80513V9.55584L29.3631 9.71297C26.948 9.86137 25.6417 10.8654 25.6417 12.6115C25.6417 14.375 26.991 15.5448 28.9249 15.5448ZM29.4835 13.9297C28.3749 13.9297 27.67 13.3885 27.67 12.559C27.67 11.7036 28.349 11.2059 29.6468 11.1274L31.9588 10.979V11.7471C31.9588 13.0218 30.8931 13.9297 29.4835 13.9297H29.4835ZM36.5312 19.1416C38.5596 19.1416 39.5136 18.356 40.3472 15.9726L44 5.56616H41.8857L39.4362 13.6066H39.3933L36.9438 5.56616H34.7693L38.2931 15.4749L38.104 16.0773C37.786 17.0987 37.2703 17.4916 36.3507 17.4916C36.1874 17.4916 35.8695 17.4742 35.7405 17.4567V19.0893C35.8608 19.1242 36.3764 19.1416 36.5312 19.1416Z" fill="#1A1A1A"/>
</svg>
