<svg width="20" height="16" viewBox="0 0 20 16" fill="none" xmlns="http://www.w3.org/2000/svg">
<path d="M19.3749 8.00001C19.3749 8.29838 19.2564 8.58452 19.0454 8.7955C18.8344 9.00648 18.5483 9.12501 18.2499 9.12501H4.46866L9.29866 13.9541C9.51 14.1654 9.62874 14.4521 9.62874 14.7509C9.62874 15.0498 9.51 15.3365 9.29866 15.5478C9.08732 15.7592 8.80067 15.8779 8.50179 15.8779C8.2029 15.8779 7.91625 15.7592 7.70491 15.5478L0.954911 8.79782C0.850031 8.6933 0.766814 8.56911 0.710033 8.43237C0.653252 8.29562 0.624023 8.14901 0.624023 8.00094C0.624023 7.85288 0.653252 7.70627 0.710033 7.56952C0.766814 7.43278 0.850031 7.30859 0.954911 7.20407L7.70491 0.454069C7.80956 0.349422 7.93379 0.266411 8.07052 0.209777C8.20725 0.153142 8.35379 0.123993 8.50179 0.123993C8.64978 0.123993 8.79632 0.153142 8.93305 0.209777C9.06978 0.266411 9.19401 0.349422 9.29866 0.454069C9.40331 0.558716 9.48632 0.68295 9.54295 0.819679C9.59959 0.956407 9.62874 1.10295 9.62874 1.25094C9.62874 1.39894 9.59959 1.54548 9.54295 1.68221C9.48632 1.81894 9.40331 1.94317 9.29866 2.04782L4.46866 6.87501H18.2499C18.5483 6.87501 18.8344 6.99353 19.0454 7.20451C19.2564 7.41549 19.3749 7.70164 19.3749 8.00001Z" fill="#1A1A1A"/>
</svg>
