<svg width="25" height="24" viewBox="0 0 25 24" fill="none" xmlns="http://www.w3.org/2000/svg">

    <path d="M20.75 3.375H4.25C3.75272 3.375 3.27581 3.57254 2.92417 3.92417C2.57254 4.27581 2.375 4.75272 2.375 5.25V18.75C2.375 19.2473 2.57254 19.7242 2.92417 20.0758C3.27581 20.4275 3.75272 20.625 4.25 20.625H20.75C21.2473 20.625 21.7242 20.4275 22.0758 20.0758C22.4275 19.7242 22.625 19.2473 22.625 18.75V5.25C22.625 4.75272 22.4275 4.27581 22.0758 3.92417C21.7242 3.57254 21.2473 3.375 20.75 3.375ZM20.375 18.375H4.625V5.625H20.375V18.375ZM7.625 8.25C7.625 7.95163 7.74353 7.66548 7.9545 7.4545C8.16548 7.24353 8.45163 7.125 8.75 7.125C9.04837 7.125 9.33452 7.24353 9.5455 7.4545C9.75647 7.66548 9.875 7.95163 9.875 8.25C9.875 8.94619 10.1516 9.61387 10.6438 10.1062C11.1361 10.5984 11.8038 10.875 12.5 10.875C13.1962 10.875 13.8639 10.5984 14.3562 10.1062C14.8484 9.61387 15.125 8.94619 15.125 8.25C15.125 7.95163 15.2435 7.66548 15.4545 7.4545C15.6655 7.24353 15.9516 7.125 16.25 7.125C16.5484 7.125 16.8345 7.24353 17.0455 7.4545C17.2565 7.66548 17.375 7.95163 17.375 8.25C17.375 9.54293 16.8614 10.7829 15.9471 11.6971C15.0329 12.6114 13.7929 13.125 12.5 13.125C11.2071 13.125 9.96709 12.6114 9.05285 11.6971C8.13861 10.7829 7.625 9.54293 7.625 8.25Z" fill="white"/>
</svg>
