<svg width="22" height="22" viewBox="0 0 22 22" fill="none" xmlns="http://www.w3.org/2000/svg">
<path d="M20.15 4.87273L11.9 0.356797C11.6243 0.205057 11.3147 0.125488 11 0.125488C10.6853 0.125488 10.3757 0.205057 10.1 0.356797L1.85 4.87273C1.5548 5.03426 1.3085 5.27224 1.13695 5.56173C0.965404 5.85122 0.874922 6.18154 0.875 6.51805V15.4824C0.874922 15.8189 0.965404 16.1492 1.13695 16.4387C1.3085 16.7282 1.5548 16.9662 1.85 17.1277L10.1 21.6437C10.3756 21.7956 10.6853 21.8752 11 21.8752C11.3147 21.8752 11.6244 21.7956 11.9 21.6437L20.15 17.1277C20.4452 16.9662 20.6915 16.7282 20.863 16.4387C21.0346 16.1492 21.1251 15.8189 21.125 15.4824V6.51805C21.1251 6.18154 21.0346 5.85122 20.863 5.56173C20.6915 5.27224 20.4452 5.03426 20.15 4.87273ZM11 2.42867L17.75 6.12523L15.7409 7.22492L8.99094 3.5293L11 2.42867ZM11 9.81898L4.25 6.12523L6.64625 4.81273L13.3962 8.50742L11 9.81898ZM3.125 8.0743L9.875 11.768V18.9559L3.125 15.2602V8.0743ZM12.125 18.9559V11.768L14.375 10.5371V13.2502C14.375 13.5486 14.4935 13.8347 14.7045 14.0457C14.9155 14.2567 15.2016 14.3752 15.5 14.3752C15.7984 14.3752 16.0845 14.2567 16.2955 14.0457C16.5065 13.8347 16.625 13.5486 16.625 13.2502V9.30523L18.875 8.0743V15.2602L12.125 18.9559Z" fill="#1A1A1A"/>
</svg>
