<svg width="25" height="24" viewBox="0 0 25 24" fill="none" xmlns="http://www.w3.org/2000/svg">
<path d="M20.0459 17.954C20.2572 18.1653 20.376 18.452 20.376 18.7509C20.376 19.0497 20.2572 19.3364 20.0459 19.5477C19.8346 19.7591 19.5479 19.8778 19.249 19.8778C18.9501 19.8778 18.6635 19.7591 18.4521 19.5477L12.5 13.5937L6.5459 19.5459C6.33455 19.7572 6.04791 19.8759 5.74902 19.8759C5.45014 19.8759 5.16349 19.7572 4.95215 19.5459C4.7408 19.3345 4.62207 19.0479 4.62207 18.749C4.62207 18.4501 4.7408 18.1635 4.95215 17.9521L10.9062 11.9999L4.95402 6.04586C4.74268 5.83451 4.62395 5.54787 4.62395 5.24898C4.62395 4.9501 4.74268 4.66345 4.95402 4.45211C5.16537 4.24076 5.45201 4.12203 5.7509 4.12203C6.04978 4.12203 6.33643 4.24076 6.54777 4.45211L12.5 10.4062L18.454 4.45117C18.6654 4.23983 18.952 4.12109 19.2509 4.12109C19.5498 4.12109 19.8364 4.23983 20.0478 4.45117C20.2591 4.66251 20.3778 4.94916 20.3778 5.24804C20.3778 5.54693 20.2591 5.83358 20.0478 6.04492L14.0937 11.9999L20.0459 17.954Z" fill="#1A1A1A"/>
</svg>
