<svg width="24" height="25" viewBox="0 0 24 25" fill="none" xmlns="http://www.w3.org/2000/svg">
<path opacity="0.2" d="M21.75 9.5V18.5C21.75 18.6989 21.671 18.8897 21.5303 19.0303C21.3897 19.171 21.1989 19.25 21 19.25H3C2.80109 19.25 2.61032 19.171 2.46967 19.0303C2.32902 18.8897 2.25 18.6989 2.25 18.5V9.5H21.75Z" fill="#1A1A1A"/>
<path d="M21 5H3C2.60218 5 2.22064 5.15804 1.93934 5.43934C1.65804 5.72064 1.5 6.10218 1.5 6.5V18.5C1.5 18.8978 1.65804 19.2794 1.93934 19.5607C2.22064 19.842 2.60218 20 3 20H21C21.3978 20 21.7794 19.842 22.0607 19.5607C22.342 19.2794 22.5 18.8978 22.5 18.5V6.5C22.5 6.10218 22.342 5.72064 22.0607 5.43934C21.7794 5.15804 21.3978 5 21 5ZM21 6.5V8.75H3V6.5H21ZM21 18.5H3V10.25H21V18.5ZM19.5 16.25C19.5 16.4489 19.421 16.6397 19.2803 16.7803C19.1397 16.921 18.9489 17 18.75 17H15.75C15.5511 17 15.3603 16.921 15.2197 16.7803C15.079 16.6397 15 16.4489 15 16.25C15 16.0511 15.079 15.8603 15.2197 15.7197C15.3603 15.579 15.5511 15.5 15.75 15.5H18.75C18.9489 15.5 19.1397 15.579 19.2803 15.7197C19.421 15.8603 19.5 16.0511 19.5 16.25ZM13.5 16.25C13.5 16.4489 13.421 16.6397 13.2803 16.7803C13.1397 16.921 12.9489 17 12.75 17H11.25C11.0511 17 10.8603 16.921 10.7197 16.7803C10.579 16.6397 10.5 16.4489 10.5 16.25C10.5 16.0511 10.579 15.8603 10.7197 15.7197C10.8603 15.579 11.0511 15.5 11.25 15.5H12.75C12.9489 15.5 13.1397 15.579 13.2803 15.7197C13.421 15.8603 13.5 16.0511 13.5 16.25Z" fill="#1A1A1A"/>
</svg>
