<svg width="64" height="64" viewBox="0 0 64 64" fill="none" xmlns="http://www.w3.org/2000/svg">
<path opacity="0.2" d="M56 18L48.87 41.1775C48.6181 41.9952 48.1107 42.7106 47.4222 43.2186C46.7338 43.7266 45.9005 44.0005 45.0449 44H21.0174C20.1481 44.0004 19.3023 43.7175 18.6081 43.1943C17.9139 42.671 17.409 41.9358 17.1699 41.1L10.5724 18H56Z" fill="#B3B3B3"/>
<path d="M24 54C24 54.7911 23.7654 55.5645 23.3259 56.2223C22.8864 56.8801 22.2616 57.3928 21.5307 57.6955C20.7998 57.9983 19.9956 58.0775 19.2196 57.9231C18.4437 57.7688 17.731 57.3878 17.1716 56.8284C16.6122 56.269 16.2312 55.5563 16.0769 54.7804C15.9225 54.0044 16.0017 53.2002 16.3045 52.4693C16.6072 51.7384 17.1199 51.1137 17.7777 50.6741C18.4355 50.2346 19.2089 50 20 50C21.0609 50 22.0783 50.4214 22.8284 51.1716C23.5786 51.9217 24 52.9391 24 54ZM46 50C45.2089 50 44.4355 50.2346 43.7777 50.6741C43.1199 51.1137 42.6072 51.7384 42.3045 52.4693C42.0017 53.2002 41.9225 54.0044 42.0769 54.7804C42.2312 55.5563 42.6122 56.269 43.1716 56.8284C43.731 57.3878 44.4437 57.7688 45.2196 57.9231C45.9956 58.0775 46.7998 57.9983 47.5307 57.6955C48.2616 57.3928 48.8864 56.8801 49.3259 56.2223C49.7654 55.5645 50 54.7911 50 54C50 52.9391 49.5786 51.9217 48.8284 51.1716C48.0783 50.4214 47.0609 50 46 50ZM57.9125 18.5875L50.78 41.765C50.4064 42.9937 49.6468 44.0692 48.6137 44.8321C47.5806 45.5949 46.3292 46.0045 45.045 46H21.0175C19.7149 45.9951 18.449 45.5684 17.4093 44.7838C16.3695 43.9991 15.612 42.8988 15.25 41.6475L6.205 10H2C1.46957 10 0.960859 9.78929 0.585787 9.41421C0.210714 9.03914 0 8.53043 0 8C0 7.46957 0.210714 6.96086 0.585787 6.58579C0.960859 6.21071 1.46957 6 2 6H6.205C7.07352 6.00288 7.91776 6.28697 8.61133 6.80974C9.30491 7.33252 9.81053 8.06586 10.0525 8.9L12.08 16H56C56.313 15.9999 56.6216 16.0732 56.9011 16.2141C57.1806 16.355 57.4231 16.5595 57.6091 16.8112C57.7951 17.0629 57.9195 17.3547 57.9722 17.6633C58.0249 17.9718 58.0044 18.2883 57.9125 18.5875ZM53.2925 20H13.2225L19.095 40.55C19.2145 40.9677 19.4667 41.3352 19.8136 41.5968C20.1604 41.8584 20.583 41.9999 21.0175 42H45.045C45.473 42.0002 45.8897 41.863 46.2339 41.6088C46.5782 41.3545 46.8318 40.9966 46.9575 40.5875L53.2925 20Z" fill="#B3B3B3"/>
</svg>
