<svg width="11" height="18" viewBox="0 0 11 18" fill="none" xmlns="http://www.w3.org/2000/svg">
<path d="M2.79595 0.704103L10.2959 8.2041C10.4008 8.30862 10.484 8.43281 10.5408 8.56956C10.5976 8.7063 10.6268 8.85291 10.6268 9.00098C10.6268 9.14904 10.5976 9.29565 10.5408 9.4324C10.484 9.56915 10.4008 9.69334 10.2959 9.79785L2.79595 17.2979C2.5846 17.5092 2.29796 17.6279 1.99907 17.6279C1.70019 17.6279 1.41354 17.5092 1.2022 17.2979C0.990855 17.0865 0.872123 16.7999 0.872123 16.501C0.872123 16.2021 0.990855 15.9154 1.2022 15.7041L7.90626 9.00004L1.20126 2.29598C0.989918 2.08463 0.871185 1.79799 0.871185 1.4991C0.871185 1.20022 0.989918 0.913574 1.20126 0.702229C1.41261 0.490885 1.69925 0.37215 1.99814 0.37215C2.29702 0.37215 2.58367 0.490885 2.79501 0.702229L2.79595 0.704103Z" fill="#B3B3B3"/>
</svg>
