<svg width="22" height="22" viewBox="0 0 22 22" fill="none" xmlns="http://www.w3.org/2000/svg">
<path d="M14.7959 8.79594L12.5938 11L14.7988 13.2041C15.0101 13.4154 15.1288 13.7021 15.1288 14.0009C15.1288 14.2998 15.0101 14.5865 14.7988 14.7978C14.5874 15.0092 14.3008 15.1279 14.0019 15.1279C13.703 15.1279 13.4163 15.0092 13.205 14.7978L11 12.5938L8.79594 14.7987C8.5846 15.0101 8.29795 15.1288 7.99907 15.1288C7.70018 15.1288 7.41354 15.0101 7.20219 14.7987C6.99085 14.5874 6.87212 14.3008 6.87212 14.0019C6.87212 13.703 6.99085 13.4163 7.20219 13.205L9.40625 11L7.20407 8.79594C7.09942 8.69129 7.01641 8.56706 6.95977 8.43033C6.90314 8.2936 6.87399 8.14706 6.87399 7.99906C6.87399 7.70018 6.99272 7.41353 7.20407 7.20219C7.41541 6.99084 7.70206 6.87211 8.00094 6.87211C8.29983 6.87211 8.58647 6.99084 8.79782 7.20219L11 9.40625L13.2041 7.20125C13.4154 6.98991 13.7021 6.87117 14.0009 6.87117C14.2998 6.87117 14.5865 6.98991 14.7978 7.20125C15.0092 7.41259 15.1279 7.69924 15.1279 7.99813C15.1279 8.29701 15.0092 8.58366 14.7978 8.795L14.7959 8.79594ZM21.125 11C21.125 13.0025 20.5312 14.9601 19.4186 16.6251C18.3061 18.2902 16.7248 19.5879 14.8747 20.3543C13.0246 21.1206 10.9888 21.3211 9.02471 20.9305C7.06066 20.5398 5.25656 19.5755 3.84055 18.1595C2.42454 16.7435 1.46023 14.9393 1.06955 12.9753C0.678878 11.0112 0.879387 8.97543 1.64572 7.12533C2.41206 5.27523 3.70981 3.69392 5.37486 2.58137C7.0399 1.46882 8.99747 0.875 11 0.875C13.6844 0.877978 16.258 1.94567 18.1562 3.84383C20.0543 5.74199 21.122 8.3156 21.125 11ZM18.875 11C18.875 9.44247 18.4131 7.91992 17.5478 6.62488C16.6825 5.32985 15.4526 4.32049 14.0136 3.72445C12.5747 3.12841 10.9913 2.97246 9.46367 3.27632C7.93607 3.58017 6.53288 4.3302 5.43154 5.43153C4.3302 6.53287 3.58018 7.93606 3.27632 9.46366C2.97246 10.9913 3.12841 12.5747 3.72445 14.0136C4.32049 15.4526 5.32985 16.6825 6.62489 17.5478C7.91993 18.4131 9.44248 18.875 11 18.875C13.0879 18.8728 15.0896 18.0424 16.566 16.566C18.0424 15.0896 18.8728 13.0879 18.875 11Z" fill="#999999"/>
</svg>
