<svg width="24" height="16" viewBox="0 0 24 16" fill="none" xmlns="http://www.w3.org/2000/svg">
<path d="M14.25 3.50006C14.25 3.2017 14.3685 2.91555 14.5795 2.70457C14.7905 2.49359 15.0766 2.37506 15.375 2.37506H22.875C23.1734 2.37506 23.4595 2.49359 23.6705 2.70457C23.8815 2.91555 24 3.2017 24 3.50006C24 3.79843 23.8815 4.08458 23.6705 4.29556C23.4595 4.50654 23.1734 4.62506 22.875 4.62506H15.375C15.0766 4.62506 14.7905 4.50654 14.5795 4.29556C14.3685 4.08458 14.25 3.79843 14.25 3.50006ZM22.875 6.87506H15.375C15.0766 6.87506 14.7905 6.99359 14.5795 7.20457C14.3685 7.41555 14.25 7.7017 14.25 8.00006C14.25 8.29843 14.3685 8.58458 14.5795 8.79556C14.7905 9.00654 15.0766 9.12506 15.375 9.12506H22.875C23.1734 9.12506 23.4595 9.00654 23.6705 8.79556C23.8815 8.58458 24 8.29843 24 8.00006C24 7.7017 23.8815 7.41555 23.6705 7.20457C23.4595 6.99359 23.1734 6.87506 22.875 6.87506ZM22.875 11.3751H17.625C17.3266 11.3751 17.0405 11.4936 16.8295 11.7046C16.6185 11.9155 16.5 12.2017 16.5 12.5001C16.5 12.7984 16.6185 13.0846 16.8295 13.2956C17.0405 13.5065 17.3266 13.6251 17.625 13.6251H22.875C23.1734 13.6251 23.4595 13.5065 23.6705 13.2956C23.8815 13.0846 24 12.7984 24 12.5001C24 12.2017 23.8815 11.9155 23.6705 11.7046C23.4595 11.4936 23.1734 11.3751 22.875 11.3751ZM14.5894 13.7188C14.6263 13.8619 14.6347 14.0108 14.6141 14.1571C14.5935 14.3034 14.5442 14.4442 14.4692 14.5715C14.3941 14.6988 14.2948 14.81 14.1767 14.8989C14.0587 14.9878 13.9243 15.0525 13.7812 15.0894C13.6382 15.1264 13.4893 15.1348 13.343 15.1141C13.1967 15.0935 13.0558 15.0443 12.9286 14.9692C12.8013 14.8942 12.69 14.7948 12.6012 14.6768C12.5123 14.5588 12.4476 14.4244 12.4106 14.2813C11.8744 12.1973 9.76312 10.6251 7.5 10.6251C5.23687 10.6251 3.12562 12.1963 2.58938 14.2813C2.55244 14.4244 2.48769 14.5588 2.39882 14.6768C2.30995 14.7948 2.1987 14.8942 2.07143 14.9692C1.94416 15.0443 1.80335 15.0935 1.65704 15.1141C1.51074 15.1348 1.36181 15.1264 1.21875 15.0894C1.07569 15.0525 0.941308 14.9878 0.823273 14.8989C0.705238 14.81 0.605863 14.6988 0.530822 14.5715C0.45578 14.4442 0.406542 14.3034 0.385919 14.1571C0.365296 14.0108 0.373691 13.8619 0.410625 13.7188C0.915 11.7594 2.29406 10.1413 4.07719 9.21881C3.38828 8.5399 2.9169 7.67141 2.72302 6.72383C2.52913 5.77624 2.62149 4.7924 2.98837 3.89746C3.35524 3.00252 3.98003 2.23694 4.78326 1.69812C5.58649 1.1593 6.53185 0.871582 7.49906 0.871582C8.46628 0.871582 9.41164 1.1593 10.2149 1.69812C11.0181 2.23694 11.6429 3.00252 12.0098 3.89746C12.3766 4.7924 12.469 5.77624 12.2751 6.72383C12.0812 7.67141 11.6098 8.5399 10.9209 9.21881C12.7059 10.1423 14.085 11.7604 14.5894 13.7188ZM7.5 8.37506C8.01918 8.37506 8.52669 8.22111 8.95837 7.93267C9.39005 7.64423 9.7265 7.23426 9.92518 6.75461C10.1239 6.27495 10.1758 5.74715 10.0746 5.23795C9.97328 4.72875 9.72327 4.26102 9.35616 3.89391C8.98904 3.5268 8.52131 3.27679 8.01211 3.1755C7.50291 3.07422 6.97511 3.1262 6.49546 3.32488C6.0158 3.52356 5.60583 3.86001 5.31739 4.29169C5.02895 4.72337 4.875 5.23089 4.875 5.75006C4.875 6.09478 4.9429 6.43613 5.07482 6.75461C5.20674 7.07309 5.40009 7.36247 5.64385 7.60622C6.13613 8.0985 6.80381 8.37506 7.5 8.37506Z" fill="#1A1A1A"/>
</svg>
