<svg width="65" height="64" viewBox="0 0 65 64" fill="none" xmlns="http://www.w3.org/2000/svg">
<path d="M46.412 22.963C46.6387 23.1893 46.8185 23.4582 46.9411 23.7541C47.0638 24.05 47.1269 24.3672 47.1269 24.6875C47.1269 25.0078 47.0638 25.325 46.9411 25.6209C46.8185 25.9168 46.6387 26.1857 46.412 26.412L29.3495 43.4745C29.1232 43.7012 28.8543 43.881 28.5584 44.0036C28.2625 44.1263 27.9453 44.1894 27.625 44.1894C27.3047 44.1894 26.9875 44.1263 26.6916 44.0036C26.3957 43.881 26.1269 43.7012 25.9005 43.4745L18.588 36.162C18.1306 35.7047 17.8737 35.0843 17.8737 34.4375C17.8737 33.7907 18.1306 33.1703 18.588 32.713C19.0454 32.2556 19.6657 31.9986 20.3125 31.9986C20.9593 31.9986 21.5797 32.2556 22.037 32.713L27.625 38.304L42.963 22.963C43.1894 22.7363 43.4582 22.5566 43.7541 22.4339C44.05 22.3112 44.3672 22.2481 44.6875 22.2481C45.0078 22.2481 45.325 22.3112 45.6209 22.4339C45.9168 22.5566 46.1857 22.7363 46.412 22.963ZM64.1875 32C64.1875 38.2672 62.3291 44.3936 58.8472 49.6046C55.3653 54.8156 50.4164 58.8771 44.6263 61.2754C38.8362 63.6738 32.4649 64.3013 26.3181 63.0786C20.1713 61.856 14.5251 58.838 10.0936 54.4064C5.66199 49.9749 2.64405 44.3287 1.42138 38.1819C0.198711 32.0352 0.82623 25.6639 3.22458 19.8737C5.62293 14.0836 9.6844 9.13467 14.8954 5.65281C20.1064 2.17094 26.2328 0.3125 32.5 0.3125C40.9013 0.321372 48.956 3.66272 54.8967 9.60335C60.8373 15.544 64.1786 23.5987 64.1875 32ZM59.3125 32C59.3125 26.697 57.74 21.5131 54.7938 17.1038C51.8476 12.6945 47.6601 9.25785 42.7607 7.22848C37.8614 5.19911 32.4703 4.66813 27.2692 5.70269C22.068 6.73726 17.2905 9.2909 13.5407 13.0407C9.79092 16.7905 7.23727 21.568 6.20271 26.7691C5.16814 31.9703 5.69912 37.3614 7.72849 42.2607C9.75787 47.16 13.1945 51.3476 17.6038 54.2938C22.0131 57.24 27.197 58.8125 32.5 58.8125C39.6087 58.8044 46.4238 55.977 51.4504 50.9504C56.477 45.9238 59.3044 39.1086 59.3125 32Z" fill="#0C9409"/>
</svg>
