<svg width="21" height="21" viewBox="0 0 21 21" fill="none" xmlns="http://www.w3.org/2000/svg">
<path d="M19.5756 5.61315L15.3869 1.42347C15.2128 1.24928 15.006 1.1111 14.7785 1.01682C14.551 0.922547 14.3071 0.874023 14.0608 0.874023C13.8145 0.874023 13.5706 0.922547 13.3431 1.01682C13.1155 1.1111 12.9088 1.24928 12.7347 1.42347L1.17438 12.9847C0.999635 13.1583 0.861091 13.3649 0.766785 13.5924C0.67248 13.82 0.624289 14.064 0.625008 14.3103V18.5C0.625008 18.9973 0.822552 19.4742 1.17418 19.8259C1.52581 20.1775 2.00273 20.375 2.50001 20.375H6.68969C6.93601 20.3757 7.18001 20.3275 7.40756 20.2332C7.63511 20.1389 7.84168 20.0004 8.01532 19.8257L19.5756 8.2644C19.9271 7.91279 20.1246 7.43596 20.1246 6.93878C20.1246 6.4416 19.9271 5.96477 19.5756 5.61315ZM6.53126 18.125H2.87501V14.4688L10.75 6.59378L14.4063 10.25L6.53126 18.125ZM16 8.65628L12.3438 5.00003L14.0631 3.28065L17.7194 6.9369L16 8.65628Z" fill="#1A1A1A"/>
</svg>
