<svg width="22" height="22" viewBox="0 0 22 22" fill="none" xmlns="http://www.w3.org/2000/svg">
<path d="M11 0.875C8.99747 0.875 7.0399 1.46882 5.37486 2.58137C3.70981 3.69392 2.41206 5.27523 1.64572 7.12533C0.879387 8.97543 0.678878 11.0112 1.06955 12.9753C1.46023 14.9393 2.42454 16.7435 3.84055 18.1595C5.25656 19.5755 7.06066 20.5398 9.02471 20.9305C10.9888 21.3211 13.0246 21.1206 14.8747 20.3543C16.7248 19.5879 18.3061 18.2902 19.4186 16.6251C20.5312 14.9601 21.125 13.0025 21.125 11C21.122 8.3156 20.0543 5.74199 18.1562 3.84383C16.258 1.94567 13.6844 0.877978 11 0.875ZM12.125 18.7934V13.625H14C14.2984 13.625 14.5845 13.5065 14.7955 13.2955C15.0065 13.0845 15.125 12.7984 15.125 12.5C15.125 12.2016 15.0065 11.9155 14.7955 11.7045C14.5845 11.4935 14.2984 11.375 14 11.375H12.125V9.5C12.125 9.20163 12.2435 8.91548 12.4545 8.7045C12.6655 8.49353 12.9516 8.375 13.25 8.375H14.75C15.0484 8.375 15.3345 8.25647 15.5455 8.0455C15.7565 7.83452 15.875 7.54837 15.875 7.25C15.875 6.95163 15.7565 6.66548 15.5455 6.4545C15.3345 6.24353 15.0484 6.125 14.75 6.125H13.25C12.3549 6.125 11.4965 6.48058 10.8635 7.11351C10.2306 7.74645 9.875 8.60489 9.875 9.5V11.375H8C7.70164 11.375 7.41549 11.4935 7.20451 11.7045C6.99353 11.9155 6.875 12.2016 6.875 12.5C6.875 12.7984 6.99353 13.0845 7.20451 13.2955C7.41549 13.5065 7.70164 13.625 8 13.625H9.875V18.7934C7.90447 18.509 6.1148 17.4888 4.86617 15.938C3.61755 14.3873 3.00265 12.4211 3.14522 10.4353C3.2878 8.44942 4.17727 6.59128 5.63463 5.23481C7.09198 3.87833 9.00905 3.12421 11 3.12421C12.991 3.12421 14.908 3.87833 16.3654 5.23481C17.8227 6.59128 18.7122 8.44942 18.8548 10.4353C18.9974 12.4211 18.3825 14.3873 17.1338 15.938C15.8852 17.4888 14.0955 18.509 12.125 18.7934Z" fill="#1A1A1A"/>
</svg>
