<svg width="24" height="24" viewBox="0 0 24 24" fill="none" xmlns="http://www.w3.org/2000/svg">
<path d="M19.1934 4.86093C17.7792 3.43768 15.9743 2.46638 14.0074 2.07014C12.0405 1.67391 10.0003 1.87059 8.1453 2.63525C6.29033 3.39991 4.70416 4.69812 3.58787 6.36531C2.47158 8.0325 1.87543 9.99359 1.875 12V17.25C1.875 17.9462 2.15156 18.6139 2.64384 19.1061C3.13613 19.5984 3.80381 19.875 4.5 19.875H6C6.69619 19.875 7.36387 19.5984 7.85616 19.1061C8.34844 18.6139 8.625 17.9462 8.625 17.25V13.5C8.625 12.8038 8.34844 12.1361 7.85616 11.6438C7.36387 11.1516 6.69619 10.875 6 10.875H4.20375C4.47525 9.00081 5.41264 7.28709 6.84434 6.04753C8.27603 4.80797 10.1063 4.12548 12 4.12499H12.06C13.9453 4.13306 15.7647 4.81965 17.1853 6.05914C18.6059 7.29864 19.5327 9.00817 19.7962 10.875H18C17.3038 10.875 16.6361 11.1516 16.1438 11.6438C15.6516 12.1361 15.375 12.8038 15.375 13.5V17.25C15.375 17.9462 15.6516 18.6139 16.1438 19.1061C16.6361 19.5984 17.3038 19.875 18 19.875H19.8375C19.7511 20.2985 19.5209 20.6791 19.1861 20.9525C18.8512 21.2258 18.4322 21.3751 18 21.375H12.75C12.4516 21.375 12.1655 21.4935 11.9545 21.7045C11.7435 21.9155 11.625 22.2016 11.625 22.5C11.625 22.7984 11.7435 23.0845 11.9545 23.2955C12.1655 23.5065 12.4516 23.625 12.75 23.625H18C19.0936 23.6237 20.1421 23.1888 20.9154 22.4154C21.6888 21.6421 22.1238 20.5936 22.125 19.5V12C22.1302 10.6757 21.8739 9.36333 21.3708 8.13826C20.8677 6.91318 20.1278 5.79945 19.1934 4.86093ZM6 13.125C6.09946 13.125 6.19484 13.1645 6.26517 13.2348C6.33549 13.3052 6.375 13.4005 6.375 13.5V17.25C6.375 17.3494 6.33549 17.4448 6.26517 17.5152C6.19484 17.5855 6.09946 17.625 6 17.625H4.5C4.40054 17.625 4.30516 17.5855 4.23484 17.5152C4.16451 17.4448 4.125 17.3494 4.125 17.25V13.125H6ZM17.625 17.25V13.5C17.625 13.4005 17.6645 13.3052 17.7348 13.2348C17.8052 13.1645 17.9005 13.125 18 13.125H19.875V17.625H18C17.9005 17.625 17.8052 17.5855 17.7348 17.5152C17.6645 17.4448 17.625 17.3494 17.625 17.25Z" fill="#1A1A1A"/>
</svg>
