<svg width="18" height="16" viewBox="0 0 18 16" fill="none" xmlns="http://www.w3.org/2000/svg">
<path d="M12.5156 0.96875C11.103 0.96875 9.84937 1.52633 9 2.48469C8.15063 1.52633 6.89695 0.96875 5.48438 0.96875C4.25406 0.970239 3.07457 1.45964 2.2046 2.3296C1.33464 3.19957 0.845239 4.37906 0.84375 5.60938C0.84375 10.6958 8.28352 14.7598 8.59992 14.9307C8.72288 14.9969 8.86035 15.0316 9 15.0316C9.13965 15.0316 9.27712 14.9969 9.40008 14.9307C9.71648 14.7598 17.1562 10.6958 17.1562 5.60938C17.1548 4.37906 16.6654 3.19957 15.7954 2.3296C14.9254 1.45964 13.7459 0.970239 12.5156 0.96875ZM12.1296 10.9784C11.1503 11.8094 10.1035 12.5573 9 13.2144C7.89648 12.5573 6.84965 11.8094 5.87039 10.9784C4.34672 9.67133 2.53125 7.67797 2.53125 5.60938C2.53125 4.82616 2.84238 4.07502 3.3962 3.5212C3.95002 2.96738 4.70116 2.65625 5.48438 2.65625C6.73594 2.65625 7.78359 3.31719 8.21883 4.38172C8.28218 4.5369 8.39031 4.6697 8.52944 4.76318C8.66857 4.85667 8.83238 4.90659 9 4.90659C9.16762 4.90659 9.33143 4.85667 9.47056 4.76318C9.60969 4.6697 9.71782 4.5369 9.78117 4.38172C10.2164 3.31719 11.2641 2.65625 12.5156 2.65625C13.2988 2.65625 14.05 2.96738 14.6038 3.5212C15.1576 4.07502 15.4688 4.82616 15.4688 5.60938C15.4688 7.67797 13.6533 9.67133 12.1296 10.9784Z" fill="#1A1A1A"/>
</svg>
