<svg width="18" height="18" viewBox="0 0 18 18" fill="none" xmlns="http://www.w3.org/2000/svg">
<path d="M9 15C0.900003 10.8 1.375 5.99999 2.625 4.12499C5.62501 1.12499 8.125 3.375 9 4.875L10.125 3.37499C13.425 0.974994 15.75 3.87499 16.5 5.62499C16.8 9.52499 11.625 13.5 9 15Z" fill="#ED1010"/>
<path d="M12.5156 1.96875C11.103 1.96875 9.84937 2.52633 9 3.48469C8.15063 2.52633 6.89695 1.96875 5.48438 1.96875C4.25406 1.97024 3.07457 2.45964 2.2046 3.3296C1.33464 4.19957 0.845239 5.37906 0.84375 6.60938C0.84375 11.6958 8.28352 15.7598 8.59992 15.9307C8.72288 15.9969 8.86035 16.0316 9 16.0316C9.13965 16.0316 9.27712 15.9969 9.40008 15.9307C9.71648 15.7598 17.1562 11.6958 17.1562 6.60938C17.1548 5.37906 16.6654 4.19957 15.7954 3.3296C14.9254 2.45964 13.7459 1.97024 12.5156 1.96875ZM12.1296 11.9784C11.1503 12.8094 10.1035 13.5573 9 14.2144C7.89648 13.5573 6.84965 12.8094 5.87039 11.9784C4.34672 10.6713 2.53125 8.67797 2.53125 6.60938C2.53125 5.82616 2.84238 5.07502 3.3962 4.5212C3.95002 3.96738 4.70116 3.65625 5.48438 3.65625C6.73594 3.65625 7.78359 4.31719 8.21883 5.38172C8.28218 5.5369 8.39031 5.6697 8.52944 5.76318C8.66857 5.85667 8.83238 5.90659 9 5.90659C9.16762 5.90659 9.33143 5.85667 9.47056 5.76318C9.60969 5.6697 9.71782 5.5369 9.78117 5.38172C10.2164 4.31719 11.2641 3.65625 12.5156 3.65625C13.2988 3.65625 14.05 3.96738 14.6038 4.5212C15.1576 5.07502 15.4687 5.82616 15.4688 6.60938C15.4688 8.67797 13.6533 10.6713 12.1296 11.9784Z" fill="#ED1010"/>
</svg>
