<svg width="22" height="22" viewBox="0 0 22 22" fill="none" xmlns="http://www.w3.org/2000/svg">
<path d="M11 6.5C10.11 6.5 9.23995 6.76392 8.49993 7.25839C7.75991 7.75285 7.18314 8.45566 6.84254 9.27792C6.50195 10.1002 6.41283 11.005 6.58647 11.8779C6.7601 12.7508 7.18868 13.5526 7.81802 14.182C8.44736 14.8113 9.24918 15.2399 10.1221 15.4135C10.995 15.5872 11.8998 15.4981 12.7221 15.1575C13.5443 14.8169 14.2471 14.2401 14.7416 13.5001C15.2361 12.76 15.5 11.89 15.5 11C15.4988 9.80691 15.0243 8.66303 14.1806 7.81939C13.337 6.97575 12.1931 6.50124 11 6.5ZM11 13.25C10.555 13.25 10.12 13.118 9.74997 12.8708C9.37996 12.6236 9.09157 12.2722 8.92127 11.861C8.75097 11.4499 8.70642 10.9975 8.79323 10.561C8.88005 10.1246 9.09434 9.72368 9.40901 9.40901C9.72368 9.09434 10.1246 8.88005 10.561 8.79323C10.9975 8.70642 11.4499 8.75097 11.861 8.92127C12.2722 9.09157 12.6236 9.37996 12.8708 9.74997C13.118 10.12 13.25 10.555 13.25 11C13.25 11.5967 13.0129 12.169 12.591 12.591C12.169 13.0129 11.5967 13.25 11 13.25ZM15.5 0.875H6.5C5.00869 0.876737 3.57896 1.46993 2.52444 2.52444C1.46993 3.57896 0.876737 5.00869 0.875 6.5V15.5C0.876737 16.9913 1.46993 18.421 2.52444 19.4756C3.57896 20.5301 5.00869 21.1233 6.5 21.125H15.5C16.9913 21.1233 18.421 20.5301 19.4756 19.4756C20.5301 18.421 21.1233 16.9913 21.125 15.5V6.5C21.1233 5.00869 20.5301 3.57896 19.4756 2.52444C18.421 1.46993 16.9913 0.876737 15.5 0.875ZM18.875 15.5C18.875 16.3951 18.5194 17.2535 17.8865 17.8865C17.2535 18.5194 16.3951 18.875 15.5 18.875H6.5C5.60489 18.875 4.74645 18.5194 4.11351 17.8865C3.48058 17.2535 3.125 16.3951 3.125 15.5V6.5C3.125 5.60489 3.48058 4.74645 4.11351 4.11351C4.74645 3.48058 5.60489 3.125 6.5 3.125H15.5C16.3951 3.125 17.2535 3.48058 17.8865 4.11351C18.5194 4.74645 18.875 5.60489 18.875 6.5V15.5ZM17.375 6.125C17.375 6.42167 17.287 6.71168 17.1222 6.95835C16.9574 7.20503 16.7231 7.39729 16.449 7.51082C16.1749 7.62435 15.8733 7.65406 15.5824 7.59618C15.2914 7.5383 15.0241 7.39544 14.8143 7.18566C14.6046 6.97588 14.4617 6.70861 14.4038 6.41764C14.3459 6.12666 14.3756 5.82506 14.4892 5.55097C14.6027 5.27689 14.795 5.04262 15.0416 4.8778C15.2883 4.71297 15.5783 4.625 15.875 4.625C16.2728 4.625 16.6544 4.78304 16.9357 5.06434C17.217 5.34564 17.375 5.72718 17.375 6.125Z" fill="#1A1A1A"/>
</svg>
