<svg width="20" height="20" viewBox="0 0 20 20" fill="none" xmlns="http://www.w3.org/2000/svg">
<path d="M11.125 18.25C11.125 18.5484 11.2435 18.8345 11.4545 19.0455C11.6655 19.2565 11.9516 19.375 12.25 19.375H17.5C17.9973 19.375 18.4742 19.1775 18.8258 18.8258C19.1775 18.4742 19.375 17.9973 19.375 17.5V2.5C19.375 2.00272 19.1775 1.52581 18.8258 1.17417C18.4742 0.822544 17.9973 0.625 17.5 0.625H12.25C11.9516 0.625 11.6655 0.743526 11.4545 0.954505C11.2435 1.16548 11.125 1.45163 11.125 1.75C11.125 2.04837 11.2435 2.33452 11.4545 2.5455C11.6655 2.75647 11.9516 2.875 12.25 2.875H17.125V17.125H12.25C11.9516 17.125 11.6655 17.2435 11.4545 17.4545C11.2435 17.6655 11.125 17.9516 11.125 18.25ZM0.954062 9.20406L4.70406 5.45406C4.91541 5.24272 5.20205 5.12399 5.50094 5.12399C5.79982 5.12399 6.08647 5.24272 6.29781 5.45406C6.50916 5.66541 6.62789 5.95205 6.62789 6.25094C6.62789 6.54982 6.50916 6.83647 6.29781 7.04781L4.46875 8.875H12.25C12.5484 8.875 12.8345 8.99353 13.0455 9.2045C13.2565 9.41548 13.375 9.70163 13.375 10C13.375 10.2984 13.2565 10.5845 13.0455 10.7955C12.8345 11.0065 12.5484 11.125 12.25 11.125H4.46875L6.29875 12.9541C6.51009 13.1654 6.62883 13.4521 6.62883 13.7509C6.62883 14.0498 6.51009 14.3365 6.29875 14.5478C6.08741 14.7592 5.80076 14.8779 5.50187 14.8779C5.20299 14.8779 4.91634 14.7592 4.705 14.5478L0.955 10.7978C0.85006 10.6934 0.766769 10.5692 0.709908 10.4325C0.653046 10.2958 0.623732 10.1492 0.623644 10.0011C0.623556 9.85307 0.6527 9.70644 0.7094 9.56966C0.7661 9.43288 0.849243 9.30864 0.954062 9.20406Z" fill="#ED1010"/>
</svg>
