<svg width="22" height="14" viewBox="0 0 22 14" fill="none" xmlns="http://www.w3.org/2000/svg">
<g clip-path="url(#clip0_146_3370)">
<path d="M11.0011 1.65404C11.8107 2.28958 12.4652 3.10099 12.915 4.02684C13.3647 4.95269 13.598 5.96873 13.5971 6.99804C13.5979 8.02743 13.3645 9.04352 12.9145 9.96937C12.4646 10.8952 11.8099 11.7066 11.0001 12.342C10.1904 11.7065 9.53593 10.8951 9.08617 9.96923C8.63641 9.04338 8.40316 8.02735 8.40408 6.99804C8.40316 5.96873 8.63641 4.95269 9.08617 4.02684C9.53593 3.10099 10.1904 2.28958 11.0001 1.65404H11.0011ZM10.1311 1.07204C9.27421 1.80371 8.58643 2.7127 8.11525 3.73619C7.64408 4.75969 7.40075 5.87329 7.40208 7.00004C7.40085 8.12638 7.64413 9.23956 8.11513 10.2627C8.58612 11.2858 9.2736 12.1945 10.1301 12.926C9.09546 13.5068 7.92686 13.8067 6.74042 13.7959C5.55398 13.7851 4.39103 13.4639 3.36718 12.8644C2.34333 12.2648 1.49423 11.4077 0.904281 10.3783C0.314336 9.34887 0.00409447 8.18296 0.00439475 6.99648C0.00469502 5.80999 0.315527 4.64424 0.905993 3.61511C1.49646 2.58599 2.34599 1.72932 3.37015 1.13027C4.39431 0.531228 5.55741 0.210664 6.74386 0.200447C7.9303 0.190231 9.09876 0.490718 10.1331 1.07204H10.1311ZM11.8731 12.926C12.7295 12.1945 13.417 11.2858 13.8879 10.2627C14.3589 9.23953 14.6022 8.12637 14.6011 7.00004C14.6023 5.87322 14.3588 4.75957 13.8875 3.73606C13.4161 2.71256 12.7281 1.80361 11.8711 1.07204C12.9054 0.490718 14.0739 0.190231 15.2603 0.200447C16.4467 0.210664 17.6099 0.531228 18.634 1.13027C19.6582 1.72932 20.5077 2.58599 21.0982 3.61511C21.6886 4.64424 21.9995 5.80999 21.9998 6.99648C22.0001 8.18296 21.6898 9.34887 21.0999 10.3783C20.5099 11.4077 19.6608 12.2648 18.637 12.8644C17.6131 13.4639 16.4502 13.7851 15.2637 13.7959C14.0773 13.8067 12.9077 13.5068 11.8731 12.926Z" fill="#1A1A1A"/>
</g>
<defs>
<clipPath id="clip0_146_3370">
<rect width="22" height="14" fill="white"/>
</clipPath>
</defs>
</svg>
