<svg width="18" height="22" viewBox="0 0 18 22" fill="none" xmlns="http://www.w3.org/2000/svg">
<path d="M9 15.125C10.2925 15.1235 11.5316 14.6094 12.4455 13.6955C13.3594 12.7816 13.8735 11.5425 13.875 10.25V5C13.875 3.70707 13.3614 2.46709 12.4471 1.55285C11.5329 0.638615 10.2929 0.125 9 0.125C7.70707 0.125 6.46709 0.638615 5.55285 1.55285C4.63861 2.46709 4.125 3.70707 4.125 5V10.25C4.12649 11.5425 4.64058 12.7816 5.5545 13.6955C6.46842 14.6094 7.70753 15.1235 9 15.125ZM6.375 5C6.375 4.30381 6.65156 3.63613 7.14384 3.14384C7.63613 2.65156 8.30381 2.375 9 2.375C9.69619 2.375 10.3639 2.65156 10.8562 3.14384C11.3484 3.63613 11.625 4.30381 11.625 5V10.25C11.625 10.9462 11.3484 11.6139 10.8562 12.1062C10.3639 12.5984 9.69619 12.875 9 12.875C8.30381 12.875 7.63613 12.5984 7.14384 12.1062C6.65156 11.6139 6.375 10.9462 6.375 10.25V5ZM10.125 18.8019V20.75C10.125 21.0484 10.0065 21.3345 9.79549 21.5455C9.58452 21.7565 9.29837 21.875 9 21.875C8.70163 21.875 8.41548 21.7565 8.2045 21.5455C7.99353 21.3345 7.875 21.0484 7.875 20.75V18.8019C5.80129 18.5262 3.89805 17.5074 2.51871 15.9347C1.13937 14.3619 0.377651 12.342 0.375 10.25C0.375 9.95163 0.493526 9.66548 0.704505 9.4545C0.915483 9.24353 1.20163 9.125 1.5 9.125C1.79837 9.125 2.08452 9.24353 2.2955 9.4545C2.50647 9.66548 2.625 9.95163 2.625 10.25C2.625 11.9408 3.29665 13.5623 4.49219 14.7578C5.68774 15.9534 7.30925 16.625 9 16.625C10.6908 16.625 12.3123 15.9534 13.5078 14.7578C14.7034 13.5623 15.375 11.9408 15.375 10.25C15.375 9.95163 15.4935 9.66548 15.7045 9.4545C15.9155 9.24353 16.2016 9.125 16.5 9.125C16.7984 9.125 17.0845 9.24353 17.2955 9.4545C17.5065 9.66548 17.625 9.95163 17.625 10.25C17.6223 12.342 16.8606 14.3619 15.4813 15.9347C14.1019 17.5074 12.1987 18.5262 10.125 18.8019Z" fill="#B3B3B3"/>
</svg>
