<svg width="64" height="64" viewBox="0 0 64 64" fill="none" xmlns="http://www.w3.org/2000/svg">
<path opacity="0.2" d="M32 32.2729V58.0004C31.6641 57.999 31.3339 57.913 31.04 57.7504L9.04 45.7054C8.72586 45.5335 8.46363 45.2805 8.28069 44.9726C8.09775 44.6648 8.00081 44.3135 8 43.9554V20.0454C8.00079 19.7653 8.06041 19.4885 8.175 19.2329L32 32.2729Z" fill="#B3B3B3"/>
<path d="M55.92 16.538L33.92 4.50053C33.3322 4.17574 32.6716 4.00537 32 4.00537C31.3284 4.00537 30.6678 4.17574 30.08 4.50053L8.08 16.543C7.45172 16.8868 6.92726 17.3929 6.56138 18.0086C6.1955 18.6243 6.00163 19.3269 6 20.043V43.953C6.00163 44.6692 6.1955 45.3718 6.56138 45.9875C6.92726 46.6031 7.45172 47.1093 8.08 47.453L30.08 59.4955C30.6678 59.8203 31.3284 59.9907 32 59.9907C32.6716 59.9907 33.3322 59.8203 33.92 59.4955L55.92 47.453C56.5483 47.1093 57.0727 46.6031 57.4386 45.9875C57.8045 45.3718 57.9984 44.6692 58 43.953V20.0455C57.9997 19.3281 57.8065 18.6239 57.4405 18.0068C57.0746 17.3897 56.5494 16.8824 55.92 16.538ZM32 8.00053L52.085 19.0005L44.6425 23.0755L24.555 12.0755L32 8.00053ZM32 30.0005L11.915 19.0005L20.39 14.3605L40.475 25.3605L32 30.0005ZM10 22.5005L30 33.4455V54.893L10 43.9555V22.5005ZM54 43.9455L34 54.893V33.4555L42 29.078V38.0005C42 38.531 42.2107 39.0397 42.5858 39.4148C42.9609 39.7898 43.4696 40.0005 44 40.0005C44.5304 40.0005 45.0391 39.7898 45.4142 39.4148C45.7893 39.0397 46 38.531 46 38.0005V26.888L54 22.5005V43.943V43.9455Z" fill="#B3B3B3"/>
</svg>
