<svg width="64" height="64" viewBox="0 0 64 64" fill="none" xmlns="http://www.w3.org/2000/svg">
<path opacity="0.2" d="M58 23.5C58 40 32 54 32 54C32 54 6 40 6 23.5C6 19.9196 7.42232 16.4858 9.95406 13.9541C12.4858 11.4223 15.9196 10 19.5 10C25.1475 10 29.985 13.0775 32 18C34.015 13.0775 38.8525 10 44.5 10C48.0804 10 51.5142 11.4223 54.0459 13.9541C56.5777 16.4858 58 19.9196 58 23.5Z" fill="#B3B3B3"/>
<path d="M44.5 8C39.3375 8 34.8175 10.22 32 13.9725C29.1825 10.22 24.6625 8 19.5 8C15.3906 8.00463 11.4508 9.63915 8.54496 12.545C5.63915 15.4508 4.00463 19.3906 4 23.5C4 41 29.9475 55.165 31.0525 55.75C31.3437 55.9067 31.6693 55.9887 32 55.9887C32.3307 55.9887 32.6563 55.9067 32.9475 55.75C34.0525 55.165 60 41 60 23.5C59.9954 19.3906 58.3609 15.4508 55.455 12.545C52.5492 9.63915 48.6094 8.00463 44.5 8ZM32 51.7C27.435 49.04 8 36.9225 8 23.5C8.00397 20.4512 9.21685 17.5285 11.3727 15.3727C13.5285 13.2168 16.4512 12.004 19.5 12C24.3625 12 28.445 14.59 30.15 18.75C30.3007 19.1168 30.557 19.4306 30.8864 19.6514C31.2158 19.8722 31.6034 19.9901 32 19.9901C32.3966 19.9901 32.7842 19.8722 33.1136 19.6514C33.443 19.4306 33.6993 19.1168 33.85 18.75C35.555 14.5825 39.6375 12 44.5 12C47.5488 12.004 50.4715 13.2168 52.6273 15.3727C54.7832 17.5285 55.996 20.4512 56 23.5C56 36.9025 36.56 49.0375 32 51.7Z" fill="#B3B3B3"/>
</svg>
