<svg width="22" height="16" viewBox="0 0 22 16" fill="none" xmlns="http://www.w3.org/2000/svg">
<path d="M20 0.125H2C1.50272 0.125 1.02581 0.322544 0.674175 0.674175C0.322544 1.02581 0.125 1.50272 0.125 2V14C0.125 14.4973 0.322544 14.9742 0.674175 15.3258C1.02581 15.6775 1.50272 15.875 2 15.875H20C20.4973 15.875 20.9742 15.6775 21.3258 15.3258C21.6775 14.9742 21.875 14.4973 21.875 14V2C21.875 1.50272 21.6775 1.02581 21.3258 0.674175C20.9742 0.322544 20.4973 0.125 20 0.125ZM19.625 2.375V4.25H2.375V2.375H19.625ZM2.375 13.625V6.5H19.625V13.625H2.375ZM18.5 11.375C18.5 11.6734 18.3815 11.9595 18.1705 12.1705C17.9595 12.3815 17.6734 12.5 17.375 12.5H14.375C14.0766 12.5 13.7905 12.3815 13.5795 12.1705C13.3685 11.9595 13.25 11.6734 13.25 11.375C13.25 11.0766 13.3685 10.7905 13.5795 10.5795C13.7905 10.3685 14.0766 10.25 14.375 10.25H17.375C17.6734 10.25 17.9595 10.3685 18.1705 10.5795C18.3815 10.7905 18.5 11.0766 18.5 11.375ZM12.125 11.375C12.125 11.6734 12.0065 11.9595 11.7955 12.1705C11.5845 12.3815 11.2984 12.5 11 12.5H9.875C9.57663 12.5 9.29048 12.3815 9.0795 12.1705C8.86853 11.9595 8.75 11.6734 8.75 11.375C8.75 11.0766 8.86853 10.7905 9.0795 10.5795C9.29048 10.3685 9.57663 10.25 9.875 10.25H11C11.2984 10.25 11.5845 10.3685 11.7955 10.5795C12.0065 10.7905 12.125 11.0766 12.125 11.375Z" fill="#1A1A1A"/>
</svg>
