<svg width="44" height="56" viewBox="0 0 44 56" fill="none" xmlns="http://www.w3.org/2000/svg">
<path d="M22 -0.000244141C16.1673 0.00637269 10.5753 2.32635 6.45096 6.45071C2.32659 10.5751 0.00661683 16.167 0 21.9998C0 40.8248 20 55.0423 20.8525 55.6373C21.1888 55.8728 21.5894 55.9992 22 55.9992C22.4106 55.9992 22.8112 55.8728 23.1475 55.6373C24 55.0423 44 40.8248 44 21.9998C43.9934 16.167 41.6734 10.5751 37.549 6.45071C33.4247 2.32635 27.8327 0.00637269 22 -0.000244141ZM22 13.9998C23.5823 13.9998 25.129 14.4689 26.4446 15.348C27.7602 16.227 28.7855 17.4765 29.391 18.9383C29.9965 20.4001 30.155 22.0086 29.8463 23.5605C29.5376 25.1123 28.7757 26.5378 27.6569 27.6566C26.538 28.7754 25.1126 29.5374 23.5607 29.846C22.0089 30.1547 20.4003 29.9963 18.9385 29.3908C17.4767 28.7853 16.2273 27.7599 15.3482 26.4443C14.4692 25.1287 14 23.582 14 21.9998C14 19.878 14.8429 17.8432 16.3431 16.3429C17.8434 14.8426 19.8783 13.9998 22 13.9998Z" fill="#1A1A1A"/>
</svg>
