<svg width="21" height="22" viewBox="0 0 21 22" fill="none" xmlns="http://www.w3.org/2000/svg">
<path d="M10.5 0.875C8.49747 0.875 6.5399 1.46882 4.87486 2.58137C3.20981 3.69392 1.91206 5.27523 1.14572 7.12533C0.379387 8.97543 0.178878 11.0112 0.569554 12.9753C0.960229 14.9393 1.92454 16.7435 3.34055 18.1595C4.75656 19.5755 6.56066 20.5398 8.52471 20.9305C10.4888 21.3211 12.5246 21.1206 14.3747 20.3543C16.2248 19.5879 17.8061 18.2902 18.9186 16.6251C20.0312 14.9601 20.625 13.0025 20.625 11C20.622 8.3156 19.5543 5.74199 17.6562 3.84383C15.758 1.94567 13.1844 0.877978 10.5 0.875ZM5.95969 17.4284C6.48195 16.7143 7.16528 16.1335 7.95418 15.7331C8.74308 15.3327 9.61531 15.124 10.5 15.124C11.3847 15.124 12.2569 15.3327 13.0458 15.7331C13.8347 16.1335 14.5181 16.7143 15.0403 17.4284C13.7134 18.3695 12.1268 18.875 10.5 18.875C8.87323 18.875 7.28665 18.3695 5.95969 17.4284ZM7.875 10.25C7.875 9.73082 8.02896 9.22331 8.3174 8.79163C8.60583 8.35995 9.0158 8.0235 9.49546 7.82482C9.97512 7.62614 10.5029 7.57415 11.0121 7.67544C11.5213 7.77672 11.989 8.02673 12.3562 8.39384C12.7233 8.76096 12.9733 9.22869 13.0746 9.73789C13.1759 10.2471 13.1239 10.7749 12.9252 11.2545C12.7265 11.7342 12.3901 12.1442 11.9584 12.4326C11.5267 12.721 11.0192 12.875 10.5 12.875C9.80381 12.875 9.13613 12.5984 8.64385 12.1062C8.15157 11.6139 7.875 10.9462 7.875 10.25ZM16.6875 15.8694C15.9583 14.9419 15.0289 14.1914 13.9688 13.6737C14.6444 12.9896 15.1026 12.1208 15.2858 11.1769C15.4689 10.2329 15.3688 9.25583 14.998 8.36861C14.6273 7.4814 14.0024 6.72364 13.202 6.19068C12.4017 5.65771 11.4616 5.37334 10.5 5.37334C9.53843 5.37334 8.59833 5.65771 7.79797 6.19068C6.99762 6.72364 6.37275 7.4814 6.00198 8.36861C5.63121 9.25583 5.5311 10.2329 5.71424 11.1769C5.89739 12.1208 6.35561 12.9896 7.03125 13.6737C5.9711 14.1914 5.04168 14.9419 4.3125 15.8694C3.39661 14.7083 2.82614 13.3129 2.6664 11.8427C2.50665 10.3725 2.7641 8.88711 3.40925 7.55644C4.05441 6.22578 5.0612 5.10366 6.31439 4.31855C7.56757 3.53343 9.0165 3.11703 10.4953 3.11703C11.9741 3.11703 13.4231 3.53343 14.6762 4.31855C15.9294 5.10366 16.9362 6.22578 17.5814 7.55644C18.2265 8.88711 18.484 10.3725 18.3242 11.8427C18.1645 13.3129 17.594 14.7083 16.6781 15.8694H16.6875Z" fill="#999999"/>
</svg>
