<svg width="22" height="22" viewBox="0 0 22 22" fill="none" xmlns="http://www.w3.org/2000/svg">
<path d="M21.0766 10.4856L11.7653 1.17438C11.5917 0.999635 11.3851 0.861091 11.1576 0.766785C10.93 0.67248 10.686 0.624289 10.4397 0.625008H1.75001C1.45164 0.625008 1.16549 0.743534 0.954513 0.954513C0.743534 1.16549 0.625008 1.45164 0.625008 1.75001V10.4397C0.624289 10.686 0.67248 10.93 0.766785 11.1576C0.861091 11.3851 0.999635 11.5917 1.17438 11.7653L10.4856 21.0766C10.8372 21.4281 11.3141 21.6255 11.8113 21.6255C12.3084 21.6255 12.7853 21.4281 13.1369 21.0766L21.0766 13.1369C21.4281 12.7853 21.6255 12.3084 21.6255 11.8113C21.6255 11.3141 21.4281 10.8372 21.0766 10.4856ZM11.8113 19.2203L2.87501 10.2813V2.87501H10.2813L19.2175 11.8113L11.8113 19.2203ZM7.37501 5.87501C7.37501 6.17168 7.28703 6.46169 7.12221 6.70836C6.95739 6.95504 6.72312 7.1473 6.44903 7.26083C6.17494 7.37436 5.87334 7.40406 5.58237 7.34619C5.2914 7.28831 5.02413 7.14545 4.81435 6.93567C4.60457 6.72589 4.46171 6.45861 4.40383 6.16764C4.34595 5.87667 4.37566 5.57507 4.48919 5.30098C4.60272 5.02689 4.79498 4.79263 5.04165 4.6278C5.28833 4.46298 5.57834 4.37501 5.87501 4.37501C6.27283 4.37501 6.65436 4.53304 6.93567 4.81435C7.21697 5.09565 7.37501 5.47718 7.37501 5.87501Z" fill="#B3B3B3"/>
</svg>
