<svg width="22" height="22" viewBox="0 0 22 22" fill="none" xmlns="http://www.w3.org/2000/svg">
<path d="M12.5 15.875C12.5 16.1717 12.412 16.4617 12.2472 16.7084C12.0824 16.955 11.8481 17.1473 11.574 17.2608C11.2999 17.3744 10.9983 17.4041 10.7074 17.3462C10.4164 17.2883 10.1491 17.1454 9.93934 16.9357C9.72957 16.7259 9.5867 16.4586 9.52883 16.1676C9.47095 15.8767 9.50065 15.5751 9.61419 15.301C9.72772 15.0269 9.91998 14.7926 10.1666 14.6278C10.4133 14.463 10.7033 14.375 11 14.375C11.3978 14.375 11.7794 14.533 12.0607 14.8143C12.342 15.0956 12.5 15.4772 12.5 15.875ZM21.125 11C21.125 13.0025 20.5312 14.9601 19.4186 16.6251C18.3061 18.2902 16.7248 19.5879 14.8747 20.3543C13.0246 21.1206 10.9888 21.3211 9.02471 20.9305C7.06066 20.5398 5.25656 19.5755 3.84055 18.1595C2.42454 16.7435 1.46023 14.9393 1.06955 12.9753C0.678878 11.0112 0.879387 8.97543 1.64572 7.12533C2.41206 5.27523 3.70981 3.69392 5.37486 2.58137C7.0399 1.46882 8.99747 0.875 11 0.875C13.6844 0.877978 16.258 1.94567 18.1562 3.84383C20.0543 5.74199 21.122 8.3156 21.125 11ZM18.875 11C18.875 9.44247 18.4131 7.91992 17.5478 6.62488C16.6825 5.32985 15.4526 4.32049 14.0136 3.72445C12.5747 3.12841 10.9913 2.97246 9.46367 3.27632C7.93607 3.58017 6.53288 4.3302 5.43154 5.43153C4.3302 6.53287 3.58018 7.93606 3.27632 9.46366C2.97246 10.9913 3.12841 12.5747 3.72445 14.0136C4.32049 15.4526 5.32985 16.6825 6.62489 17.5478C7.91993 18.4131 9.44248 18.875 11 18.875C13.0879 18.8728 15.0896 18.0424 16.566 16.566C18.0424 15.0896 18.8728 13.0879 18.875 11ZM11 5C8.72563 5 6.875 6.68188 6.875 8.75V9.125C6.875 9.42337 6.99353 9.70952 7.20451 9.9205C7.41549 10.1315 7.70164 10.25 8 10.25C8.29837 10.25 8.58452 10.1315 8.7955 9.9205C9.00648 9.70952 9.125 9.42337 9.125 9.125V8.75C9.125 7.92313 9.96875 7.25 11 7.25C12.0313 7.25 12.875 7.92313 12.875 8.75C12.875 9.57687 12.0313 10.25 11 10.25C10.7016 10.25 10.4155 10.3685 10.2045 10.5795C9.99353 10.7905 9.875 11.0766 9.875 11.375V12.125C9.87433 12.4029 9.97658 12.6713 10.162 12.8783C10.3475 13.0854 10.603 13.2164 10.8793 13.2462C11.1557 13.276 11.4333 13.2025 11.6586 13.0398C11.8839 12.8771 12.0411 12.6367 12.0997 12.365C13.8416 11.9262 15.125 10.4722 15.125 8.75C15.125 6.68188 13.2744 5 11 5Z" fill="#999999"/>
</svg>
