<svg width="23" height="20" viewBox="0 0 23 20" fill="none" xmlns="http://www.w3.org/2000/svg">
<path d="M16.1875 0.625C14.3041 0.625 12.6325 1.36844 11.5 2.64625C10.3675 1.36844 8.69594 0.625 6.8125 0.625C5.17208 0.626985 3.59942 1.27952 2.43947 2.43947C1.27952 3.59942 0.626985 5.17208 0.625 6.8125C0.625 13.5944 10.5447 19.0131 10.9666 19.2409C11.1305 19.3292 11.3138 19.3754 11.5 19.3754C11.6862 19.3754 11.8695 19.3292 12.0334 19.2409C12.4553 19.0131 22.375 13.5944 22.375 6.8125C22.373 5.17208 21.7205 3.59942 20.5605 2.43947C19.4006 1.27952 17.8279 0.626985 16.1875 0.625ZM15.6728 13.9713C14.3671 15.0792 12.9714 16.0764 11.5 16.9525C10.0286 16.0764 8.63287 15.0792 7.32719 13.9713C5.29562 12.2284 2.875 9.57063 2.875 6.8125C2.875 5.76821 3.28984 4.76669 4.02827 4.02827C4.76669 3.28984 5.76821 2.875 6.8125 2.875C8.48125 2.875 9.87813 3.75625 10.4584 5.17562C10.5429 5.38254 10.6871 5.55961 10.8726 5.68425C11.0581 5.80889 11.2765 5.87545 11.5 5.87545C11.7235 5.87545 11.9419 5.80889 12.1274 5.68425C12.3129 5.55961 12.4571 5.38254 12.5416 5.17562C13.1219 3.75625 14.5188 2.875 16.1875 2.875C17.2318 2.875 18.2333 3.28984 18.9717 4.02827C19.7102 4.76669 20.125 5.76821 20.125 6.8125C20.125 9.57063 17.7044 12.2284 15.6728 13.9713Z" fill="#999999"/>
</svg>
