<svg width="64" height="64" viewBox="0 0 64 64" fill="none" xmlns="http://www.w3.org/2000/svg">
<path opacity="0.2" d="M47.9998 28.0001C47.9998 31.9557 46.8268 35.8225 44.6291 39.1115C42.4315 42.4005 39.308 44.964 35.6534 46.4777C31.9989 47.9915 27.9776 48.3875 24.098 47.6158C20.2183 46.8441 16.6547 44.9393 13.8576 42.1423C11.0606 39.3452 9.15576 35.7815 8.38406 31.9019C7.61235 28.0223 8.00842 24.001 9.52217 20.3465C11.0359 16.6919 13.5994 13.5684 16.8884 11.3707C20.1773 9.1731 24.0441 8.00012 27.9998 8.00012C30.6262 8.00012 33.2269 8.51744 35.6534 9.52253C38.0799 10.5276 40.2847 12.0008 42.1419 13.858C43.9991 15.7152 45.4723 17.9199 46.4774 20.3465C47.4824 22.773 47.9998 25.3737 47.9998 28.0001Z" fill="#B3B3B3"/>
<path d="M57.415 54.585L44.9 42.07C48.5345 37.711 50.3485 32.1187 49.9647 26.4563C49.5809 20.7939 47.0288 15.4975 42.8393 11.6689C38.6499 7.84029 33.1457 5.77426 27.4717 5.90061C21.7977 6.02697 16.3909 8.33597 12.3761 12.3473C8.36122 16.3586 6.04744 21.7634 5.91607 27.4372C5.7847 33.111 7.84587 38.6171 11.6708 42.8099C15.4957 47.0028 20.7898 49.5595 26.4519 49.9483C32.1139 50.3371 37.7079 48.5281 42.07 44.8975L54.585 57.415C54.7708 57.6008 54.9914 57.7482 55.2342 57.8487C55.477 57.9493 55.7372 58.0011 56 58.0011C56.2628 58.0011 56.523 57.9493 56.7658 57.8487C57.0086 57.7482 57.2292 57.6008 57.415 57.415C57.6008 57.2291 57.7482 57.0085 57.8488 56.7657C57.9494 56.523 58.0011 56.2627 58.0011 56C58.0011 55.7372 57.9494 55.4769 57.8488 55.2342C57.7482 54.9914 57.6008 54.7708 57.415 54.585ZM10 28C10 24.4399 11.0557 20.9598 13.0335 17.9997C15.0114 15.0396 17.8226 12.7325 21.1117 11.3701C24.4008 10.0077 28.02 9.65129 31.5116 10.3458C35.0033 11.0404 38.2106 12.7547 40.7279 15.272C43.2453 17.7894 44.9596 20.9967 45.6541 24.4883C46.3487 27.98 45.9922 31.5992 44.6298 34.8883C43.2675 38.1773 40.9603 40.9885 38.0003 42.9664C35.0402 44.9443 31.5601 46 28 46C23.2277 45.9947 18.6524 44.0965 15.2779 40.722C11.9034 37.3475 10.0053 32.7722 10 28Z" fill="#B3B3B3"/>
</svg>
