<svg width="22" height="20" viewBox="0 0 24 16" fill="none" xmlns="http://www.w3.org/2000/svg">
<path d="M23.5313 7.54344C23.4966 7.4675 22.6753 5.64406 20.8613 3.83C18.4341 1.40656 15.375 0.125 12 0.125C8.625 0.125 5.56594 1.40656 3.14156 3.83C1.3275 5.64406 0.506252 7.4675 0.468752 7.54344C0.405239 7.68743 0.372437 7.84309 0.372437 8.00047C0.372437 8.15785 0.405239 8.3135 0.468752 8.4575C0.503439 8.53438 1.32469 10.3569 3.13969 12.1709C5.56594 14.5944 8.625 15.875 12 15.875C15.375 15.875 18.4341 14.5944 20.8575 12.1709C22.6725 10.3569 23.4938 8.53438 23.5284 8.4575C23.5924 8.3137 23.6257 8.15815 23.6262 8.00077C23.6266 7.84338 23.5943 7.68763 23.5313 7.54344ZM19.2131 10.6372C17.2003 12.6191 14.7741 13.625 12 13.625C9.22594 13.625 6.79969 12.6191 4.78969 10.6362C3.99876 9.85365 3.31841 8.96671 2.7675 8C3.31857 7.03368 3.99891 6.14707 4.78969 5.36469C6.80063 3.38094 9.22594 2.375 12 2.375C14.7741 2.375 17.1994 3.38094 19.2103 5.36469C20.0012 6.147 20.6815 7.03362 21.2325 8C20.6815 8.96665 20.0012 9.85358 19.2103 10.6362L19.2131 10.6372ZM12 3.875C11.1842 3.875 10.3866 4.11693 9.70827 4.57019C9.02992 5.02345 8.50121 5.66769 8.189 6.42143C7.87679 7.17518 7.7951 8.00458 7.95426 8.80475C8.11343 9.60492 8.5063 10.3399 9.08319 10.9168C9.66008 11.4937 10.3951 11.8866 11.1953 12.0457C11.9954 12.2049 12.8248 12.1232 13.5786 11.811C14.3323 11.4988 14.9766 10.9701 15.4298 10.2917C15.8831 9.61337 16.125 8.81585 16.125 8C16.1238 6.90636 15.6888 5.85787 14.9154 5.08455C14.1421 4.31124 13.0936 3.87624 12 3.875ZM12 9.875C11.6292 9.875 11.2667 9.76503 10.9583 9.55901C10.65 9.35298 10.4096 9.06014 10.2677 8.71753C10.1258 8.37492 10.0887 7.99792 10.161 7.63421C10.2334 7.27049 10.412 6.9364 10.6742 6.67417C10.9364 6.41195 11.2705 6.23337 11.6342 6.16103C11.9979 6.08868 12.3749 6.12581 12.7175 6.26773C13.0601 6.40964 13.353 6.64996 13.559 6.95831C13.765 7.26665 13.875 7.62916 13.875 8C13.875 8.49728 13.6775 8.97419 13.3258 9.32582C12.9742 9.67746 12.4973 9.875 12 9.875Z" fill="#1A1A1A"/>
</svg>
