<svg width="20" height="19" viewBox="0 0 20 19" fill="none" xmlns="http://www.w3.org/2000/svg">
<path opacity="0.2" d="M19.2806 10.8438L11.3437 18.7806C11.2031 18.9212 11.0124 19.0001 10.8136 19.0001C10.6148 19.0001 10.4241 18.9212 10.2834 18.7806L0.969375 9.46937C0.828988 9.32883 0.750092 9.13834 0.75 8.93969V0.25H9.43969C9.63833 0.250092 9.82883 0.328988 9.96937 0.469375L19.2806 9.78063C19.3506 9.85031 19.4062 9.93315 19.4441 10.0244C19.482 10.1156 19.5015 10.2134 19.5015 10.3122C19.5015 10.411 19.482 10.5088 19.4441 10.6C19.4062 10.6912 19.3506 10.7741 19.2806 10.8438Z" fill="#1A1A1A"/>
</svg>
