<svg width="19" height="19" viewBox="0 0 19 19" fill="none" xmlns="http://www.w3.org/2000/svg">
<path d="M8.70843 1.37153C8.93892 0.90459 9.05416 0.67112 9.21061 0.596527C9.34673 0.531627 9.50487 0.531627 9.64099 0.596527C9.79744 0.67112 9.91268 0.90459 10.1432 1.37153L12.3298 5.8015C12.3979 5.93935 12.4319 6.00827 12.4816 6.06179C12.5257 6.10917 12.5785 6.14756 12.6371 6.17483C12.7033 6.20564 12.7794 6.21675 12.9315 6.23899L17.8228 6.95392C18.3378 7.0292 18.5954 7.06685 18.7146 7.19265C18.8183 7.3021 18.867 7.45251 18.8473 7.60199C18.8246 7.77379 18.6382 7.95539 18.2653 8.31859L14.7272 11.7646C14.6169 11.8721 14.5618 11.9258 14.5262 11.9897C14.4947 12.0463 14.4745 12.1084 14.4667 12.1727C14.4579 12.2453 14.4709 12.3212 14.4969 12.473L15.3317 17.3403C15.4198 17.8537 15.4638 18.1104 15.3811 18.2627C15.3091 18.3952 15.1811 18.4882 15.0328 18.5157C14.8624 18.5473 14.6319 18.4261 14.1709 18.1836L9.79816 15.884C9.66191 15.8124 9.59379 15.7766 9.52202 15.7625C9.45848 15.75 9.39312 15.75 9.32957 15.7625C9.2578 15.7766 9.18968 15.8124 9.05344 15.884L4.6807 18.1836C4.2197 18.4261 3.98919 18.5473 3.81875 18.5157C3.67046 18.4882 3.5425 18.3952 3.47052 18.2627C3.38778 18.1104 3.43181 17.8537 3.51986 17.3403L4.35467 12.473C4.38069 12.3212 4.39371 12.2453 4.3849 12.1727C4.3771 12.1084 4.35689 12.0463 4.32539 11.9897C4.2898 11.9258 4.23466 11.8721 4.12437 11.7646L0.586341 8.31859C0.213444 7.95539 0.0269959 7.77379 0.00430753 7.60199C-0.0154326 7.45251 0.0333348 7.3021 0.137032 7.19265C0.256216 7.06685 0.513753 7.0292 1.02882 6.95392L5.92009 6.23899C6.07221 6.21675 6.14826 6.20564 6.2145 6.17483C6.27315 6.14756 6.32594 6.10917 6.36997 6.06179C6.41969 6.00827 6.45371 5.93935 6.52175 5.8015L8.70843 1.37153Z" fill="#FFA928"/>
</svg>
