<svg width="14" height="15" viewBox="0 0 14 15" fill="none" xmlns="http://www.w3.org/2000/svg">
<path d="M0.341372 14.2798C0.130393 14.0688 0.0118672 13.7827 0.0118678 13.4843C0.0118672 13.1859 0.130393 12.8998 0.341371 12.6888L10.0862 2.94398L3.2562 2.94464C2.95731 2.94464 2.67067 2.82591 2.45932 2.61457C2.24798 2.40322 2.12925 2.11658 2.12925 1.81769C2.12925 1.5188 2.24798 1.23216 2.45932 1.02081C2.67067 0.80947 2.95731 0.690739 3.2562 0.690739L12.8021 0.690739C12.9502 0.690482 13.0969 0.719456 13.2337 0.775999C13.3706 0.832543 13.4949 0.915544 13.5996 1.02024C13.7043 1.12494 13.7873 1.24928 13.8438 1.38612C13.9004 1.52297 13.9293 1.66962 13.9291 1.81769L13.9291 11.3636C13.9291 11.5116 13.8999 11.6582 13.8433 11.7949C13.7867 11.9316 13.7037 12.0559 13.599 12.1605C13.4944 12.2652 13.3701 12.3482 13.2334 12.4048C13.0967 12.4614 12.9501 12.4906 12.8021 12.4906C12.6541 12.4906 12.5076 12.4614 12.3709 12.4048C12.2341 12.3482 12.1099 12.2652 12.0053 12.1605C11.9006 12.0559 11.8176 11.9316 11.761 11.7949C11.7043 11.6582 11.6752 11.5116 11.6752 11.3636L11.6772 4.53497L1.93236 14.2798C1.72138 14.4908 1.43524 14.6093 1.13687 14.6093C0.838499 14.6093 0.55235 14.4908 0.341372 14.2798Z" fill="#1A1A1A"/>
</svg>
