<svg width="22" height="20" viewBox="0 0 22 20" fill="none" xmlns="http://www.w3.org/2000/svg">
<path d="M21.5398 3.31963C21.4546 3.11397 21.3104 2.93819 21.1253 2.81453C20.9402 2.69088 20.7226 2.62489 20.5001 2.62494H17.8582C17.4141 1.94146 16.808 1.37838 16.0937 0.985819C15.3794 0.59326 14.5791 0.383407 13.7641 0.374941C13.1282 0.366403 12.4971 0.485178 11.9078 0.724271C11.3185 0.963363 10.783 1.31794 10.3329 1.76713C9.86996 2.22115 9.50251 2.76316 9.25216 3.36127C9.0018 3.95939 8.87359 4.60154 8.87506 5.24994V5.32307C5.42225 4.23838 2.65194 1.48869 2.62194 1.45775C2.47099 1.30563 2.27973 1.19979 2.07066 1.15268C1.8616 1.10558 1.64343 1.11916 1.44182 1.19185C1.24022 1.26453 1.06357 1.39329 0.93266 1.56296C0.801751 1.73264 0.72203 1.93618 0.702878 2.14963C0.111316 8.72807 3.01382 12.2549 4.646 13.6921C3.28757 15.0778 1.37507 15.8137 1.35632 15.8212C1.1973 15.8804 1.05374 15.9748 0.936365 16.0973C0.818995 16.2198 0.73086 16.3673 0.678559 16.5287C0.626258 16.6902 0.611145 16.8613 0.634351 17.0294C0.657558 17.1975 0.718483 17.3581 0.812566 17.4993C1.00007 17.7703 2.07257 19.1249 5.50007 19.1249C12.2735 19.1249 17.9407 13.9443 18.5876 7.25338L21.2951 4.54588C21.4526 4.38862 21.5599 4.18816 21.6035 3.96988C21.647 3.7516 21.6248 3.5253 21.5398 3.31963ZM16.7051 5.95494C16.5111 6.14804 16.3947 6.40554 16.3779 6.67869C16.0132 12.3965 11.2357 16.8749 5.50007 16.8749C5.10851 16.8772 4.71727 16.8525 4.32913 16.8009C5.31257 16.1765 6.41131 15.2878 7.18756 14.1243C7.27248 13.997 7.33051 13.8536 7.3581 13.703C7.3857 13.5525 7.38228 13.3979 7.34805 13.2487C7.31382 13.0995 7.24951 12.9588 7.15905 12.8354C7.06858 12.7119 6.95388 12.6082 6.82194 12.5306C6.81069 12.524 5.666 11.8284 4.62538 10.2412C3.58475 8.65401 3.00725 6.77244 2.89475 4.63682C4.5035 5.84994 7.00006 7.3865 9.81256 7.85994C9.97394 7.88722 10.1393 7.87896 10.2972 7.83573C10.455 7.79251 10.6016 7.71536 10.7265 7.60967C10.8515 7.50399 10.9519 7.3723 11.0207 7.22382C11.0896 7.07533 11.1252 6.91361 11.1251 6.74994V5.24994C11.1243 4.89957 11.1936 4.55258 11.329 4.22943C11.4644 3.90628 11.6632 3.61351 11.9135 3.36838C12.1526 3.12922 12.437 2.94026 12.7502 2.81259C13.0633 2.68493 13.3988 2.62112 13.7369 2.62494C14.2482 2.63179 14.747 2.78349 15.1754 3.06244C15.6039 3.34139 15.9444 3.73615 16.1576 4.20088C16.2453 4.40135 16.3896 4.5719 16.5727 4.69162C16.7559 4.81135 16.97 4.87505 17.1888 4.87494H17.7813L16.7051 5.95494Z" fill="#1A1A1A"/>
</svg>
