<svg width="44" height="14" viewBox="0 0 44 14" fill="none" xmlns="http://www.w3.org/2000/svg">
<g clip-path="url(#clip0_146_3336)">
<path d="M31.3012 1.27291C30.2877 0.910603 29.2164 0.728796 28.1377 0.736049C24.6495 0.736049 22.1859 2.45999 22.1684 4.93469C22.1466 6.75274 23.9191 7.77727 25.2599 8.38471C26.6356 9.00927 27.0956 9.40283 27.0913 9.96108C27.0825 10.8102 25.9924 11.1952 24.9787 11.1952C23.5855 11.1952 22.8246 11.0049 21.6539 10.5279L21.22 10.329L20.7251 13.178C21.5732 13.5245 23.1015 13.8218 24.68 13.8474C28.3885 13.8474 30.8128 12.1342 30.8412 9.50121C30.8717 8.04891 29.9124 6.95166 27.8936 6.04477C26.6661 5.45658 25.9052 5.06302 25.9052 4.46627C25.9052 3.93796 26.5571 3.3733 27.9197 3.3733C28.8266 3.35177 29.7278 3.5187 30.5643 3.8631L30.8913 4.00641L31.3862 1.25366L31.3012 1.27291ZM40.3533 0.967048H37.6281C36.78 0.967048 36.1412 1.19591 35.7706 2.02152L30.5294 13.6699H34.2379L34.9791 11.7599L39.5052 11.7642C39.612 12.2112 39.9391 13.6699 39.9391 13.6699H43.2093L40.3533 0.967048ZM17.1518 0.860103H20.6859L18.4752 13.5694H14.9455L17.1518 0.855826V0.860103ZM8.18037 7.86496L8.54664 9.62955L12 0.967048H15.7434L10.1818 13.6528H6.44713L3.39488 2.9113C3.34544 2.73418 3.22934 2.58206 3.07003 2.48566C1.96991 1.92813 0.804267 1.50504 -0.400818 1.22585L-0.352854 0.958491H5.33524C6.10702 0.988436 6.72837 1.22585 6.93549 2.03435L8.17819 7.87138L8.18037 7.86496ZM35.9929 9.16113L37.4013 5.6063C37.3839 5.6448 37.6913 4.87266 37.8701 4.39569L38.1121 5.49294L38.9296 9.15899H35.9908L35.9929 9.16113Z" fill="#1A1A1A"/>
</g>
<defs>
<clipPath id="clip0_146_3336">
<rect width="44" height="14" fill="white"/>
</clipPath>
</defs>
</svg>
