<svg width="24" height="25" viewBox="0 0 24 25" fill="none" xmlns="http://www.w3.org/2000/svg">
<path opacity="0.2" d="M21 8.75V19.25C21 19.4489 20.921 19.6397 20.7803 19.7803C20.6397 19.921 20.4489 20 20.25 20H5.25C4.85218 20 4.47064 19.842 4.18934 19.5607C3.90804 19.2794 3.75 18.8978 3.75 18.5V6.5C3.75 6.89782 3.90804 7.27936 4.18934 7.56066C4.47064 7.84196 4.85218 8 5.25 8H20.25C20.4489 8 20.6397 8.07902 20.7803 8.21967C20.921 8.36032 21 8.55109 21 8.75Z" fill="#1A1A1A"/>
<path d="M20.25 7.25H5.25C5.05109 7.25 4.86032 7.17098 4.71967 7.03033C4.57902 6.88968 4.5 6.69891 4.5 6.5C4.5 6.30109 4.57902 6.11032 4.71967 5.96967C4.86032 5.82902 5.05109 5.75 5.25 5.75H18C18.1989 5.75 18.3897 5.67098 18.5303 5.53033C18.671 5.38968 18.75 5.19891 18.75 5C18.75 4.80109 18.671 4.61032 18.5303 4.46967C18.3897 4.32902 18.1989 4.25 18 4.25H5.25C4.65326 4.25 4.08097 4.48705 3.65901 4.90901C3.23705 5.33097 3 5.90326 3 6.5V18.5C3 19.0967 3.23705 19.669 3.65901 20.091C4.08097 20.5129 4.65326 20.75 5.25 20.75H20.25C20.6478 20.75 21.0294 20.592 21.3107 20.3107C21.592 20.0294 21.75 19.6478 21.75 19.25V8.75C21.75 8.35218 21.592 7.97064 21.3107 7.68934C21.0294 7.40804 20.6478 7.25 20.25 7.25ZM20.25 19.25H5.25C5.05109 19.25 4.86032 19.171 4.71967 19.0303C4.57902 18.8897 4.5 18.6989 4.5 18.5V8.62156C4.74082 8.70693 4.9945 8.75037 5.25 8.75H20.25V19.25ZM15.75 13.625C15.75 13.4025 15.816 13.185 15.9396 13C16.0632 12.815 16.2389 12.6708 16.4445 12.5856C16.65 12.5005 16.8762 12.4782 17.0945 12.5216C17.3127 12.565 17.5132 12.6722 17.6705 12.8295C17.8278 12.9868 17.935 13.1873 17.9784 13.4055C18.0218 13.6238 17.9995 13.85 17.9144 14.0555C17.8292 14.2611 17.685 14.4368 17.5 14.5604C17.315 14.684 17.0975 14.75 16.875 14.75C16.5766 14.75 16.2905 14.6315 16.0795 14.4205C15.8685 14.2095 15.75 13.9234 15.75 13.625Z" fill="#1A1A1A"/>
</svg>
