<svg width="79" height="78" viewBox="0 0 79 78" fill="none" xmlns="http://www.w3.org/2000/svg">
<path opacity="0.2" d="M68.75 39C68.75 44.7851 67.0345 50.4403 63.8205 55.2504C60.6065 60.0606 56.0382 63.8096 50.6935 66.0235C45.3488 68.2373 39.4676 68.8166 33.7936 67.688C28.1197 66.5594 22.9078 63.7736 18.8171 59.6829C14.7265 55.5922 11.9407 50.3803 10.812 44.7064C9.68343 39.0324 10.2627 33.1513 12.4765 27.8065C14.6904 22.4618 18.4394 17.8935 23.2496 14.6795C28.0597 11.4655 33.7149 9.75 39.5 9.75C47.2576 9.75 54.6974 12.8317 60.1829 18.3171C65.6683 23.8026 68.75 31.2424 68.75 39Z" fill="#ED1010"/>
<path d="M39.5 7.3125C33.2328 7.3125 27.1064 9.17094 21.8954 12.6528C16.6844 16.1347 12.6229 21.0836 10.2246 26.8737C7.82623 32.6639 7.19871 39.0352 8.42138 45.1819C9.64405 51.3287 12.662 56.9749 17.0936 61.4064C21.5251 65.838 27.1713 68.856 33.3181 70.0786C39.4649 71.3013 45.8362 70.6738 51.6263 68.2754C57.4164 65.8771 62.3653 61.8156 65.8472 56.6046C69.3291 51.3936 71.1875 45.2672 71.1875 39C71.1786 30.5987 67.8373 22.544 61.8967 16.6034C55.956 10.6627 47.9013 7.32137 39.5 7.3125ZM39.5 65.8125C34.197 65.8125 29.0131 64.24 24.6038 61.2938C20.1945 58.3476 16.7579 54.16 14.7285 49.2607C12.6991 44.3614 12.1681 38.9703 13.2027 33.7691C14.2373 28.568 16.7909 23.7905 20.5407 20.0407C24.2905 16.2909 29.068 13.7373 34.2692 12.7027C39.4703 11.6681 44.8614 12.1991 49.7607 14.2285C54.6601 16.2579 58.8476 19.6945 61.7938 24.1038C64.74 28.5131 66.3125 33.697 66.3125 39C66.3044 46.1086 63.477 52.9238 58.4504 57.9504C53.4238 62.977 46.6087 65.8044 39.5 65.8125ZM37.0625 41.4375V24.375C37.0625 23.7285 37.3193 23.1085 37.7764 22.6514C38.2336 22.1943 38.8535 21.9375 39.5 21.9375C40.1465 21.9375 40.7665 22.1943 41.2236 22.6514C41.6807 23.1085 41.9375 23.7285 41.9375 24.375V41.4375C41.9375 42.084 41.6807 42.704 41.2236 43.1611C40.7665 43.6182 40.1465 43.875 39.5 43.875C38.8535 43.875 38.2336 43.6182 37.7764 43.1611C37.3193 42.704 37.0625 42.084 37.0625 41.4375ZM43.1563 52.4062C43.1563 53.1294 42.9418 53.8363 42.5401 54.4376C42.1383 55.0388 41.5673 55.5074 40.8992 55.7842C40.2311 56.0609 39.496 56.1333 38.7867 55.9922C38.0775 55.8512 37.426 55.5029 36.9147 54.9916C36.4033 54.4803 36.0551 53.8288 35.914 53.1195C35.7729 52.4103 35.8453 51.6752 36.1221 51.0071C36.3988 50.339 36.8674 49.7679 37.4687 49.3662C38.07 48.9644 38.7769 48.75 39.5 48.75C40.4697 48.75 41.3997 49.1352 42.0854 49.8209C42.7711 50.5066 43.1563 51.4366 43.1563 52.4062Z" fill="#ED1010"/>
</svg>
