<svg width="22" height="18" viewBox="0 0 22 18" fill="none" xmlns="http://www.w3.org/2000/svg">
<path d="M19.25 0.375H2.75C2.25272 0.375 1.77581 0.572544 1.42417 0.924175C1.07254 1.27581 0.875 1.75272 0.875 2.25V15.75C0.875 16.2473 1.07254 16.7242 1.42417 17.0758C1.77581 17.4275 2.25272 17.625 2.75 17.625H19.25C19.7473 17.625 20.2242 17.4275 20.5758 17.0758C20.9275 16.7242 21.125 16.2473 21.125 15.75V2.25C21.125 1.75272 20.9275 1.27581 20.5758 0.924175C20.2242 0.572544 19.7473 0.375 19.25 0.375ZM18.875 2.625V4.875H3.125V2.625H18.875ZM3.125 15.375V7.125H18.875V15.375H3.125Z" fill="#1A1A1A"/>
</svg>
