<svg width="22" height="22" viewBox="0 0 22 22" fill="none" xmlns="http://www.w3.org/2000/svg">
<path d="M16.5594 13.912C16.4049 14.6764 15.9912 15.3639 15.3882 15.8583C14.7851 16.3526 14.0298 16.6235 13.25 16.6252C11.1622 16.6229 9.16042 15.7925 7.68405 14.3162C6.20768 12.8398 5.37728 10.8381 5.37505 8.75016C5.37666 7.97038 5.64757 7.21509 6.14196 6.61206C6.63634 6.00903 7.32385 5.59527 8.08817 5.44079C8.3298 5.39297 8.58044 5.42578 8.80162 5.53417C9.02279 5.64255 9.20229 5.82053 9.31255 6.04079L10.3888 8.19704C10.4771 8.37417 10.517 8.57145 10.5047 8.76898C10.4924 8.9665 10.4281 9.15727 10.3185 9.32204L9.51974 10.5202C9.93098 11.3777 10.6225 12.0692 11.48 12.4805L12.6782 11.6817C12.8429 11.5721 13.0337 11.5079 13.2312 11.4955C13.4288 11.4832 13.626 11.5231 13.8032 11.6114L15.9594 12.6877C16.1797 12.7979 16.3577 12.9774 16.466 13.1986C16.5744 13.4198 16.6072 13.6704 16.5594 13.912ZM21.125 11.0002C21.1254 12.7345 20.6803 14.4399 19.8323 15.9528C18.9843 17.4657 17.7619 18.7354 16.2823 19.6402C14.8027 20.545 13.1155 21.0546 11.3824 21.1201C9.64929 21.1856 7.92841 20.8048 6.38474 20.0142L3.34442 21.0314C3.01345 21.143 2.6579 21.1598 2.31784 21.0802C1.97779 21.0005 1.66675 20.8274 1.41978 20.5804C1.17281 20.3335 0.999734 20.0224 0.920053 19.6824C0.840371 19.3423 0.857254 18.9868 0.968799 18.6558L1.98224 15.6155C1.28632 14.2523 0.908499 12.7491 0.877176 11.2189C0.845854 9.68873 1.16185 8.17134 1.8014 6.78084C2.44095 5.39035 3.38741 4.16294 4.56962 3.1909C5.75184 2.21886 7.13904 1.52749 8.62693 1.16876C10.1148 0.810029 11.6647 0.793284 13.16 1.11978C14.6553 1.44628 16.0571 2.10752 17.26 3.05379C18.4629 4.00006 19.4357 5.20673 20.1052 6.58308C20.7746 7.95943 21.1233 9.46964 21.125 11.0002ZM18.875 11.0002C18.8746 9.79223 18.5963 8.6006 18.0616 7.51745C17.5269 6.43429 16.7503 5.48865 15.7917 4.75368C14.8331 4.01871 13.7182 3.5141 12.5334 3.2789C11.3486 3.0437 10.1256 3.0842 8.95894 3.39728C7.79229 3.71037 6.7133 4.28763 5.80543 5.08442C4.89757 5.88121 4.18517 6.87617 3.72334 7.99233C3.26152 9.10848 3.06264 10.3159 3.14211 11.5212C3.22157 12.7265 3.57725 13.8974 4.18161 14.9433C4.26149 15.0812 4.31116 15.2345 4.32732 15.3931C4.34348 15.5516 4.32577 15.7118 4.27536 15.863L3.34442 18.6558L6.13724 17.7248C6.25212 17.6866 6.3724 17.667 6.49349 17.6667C6.69107 17.6671 6.88508 17.7195 7.05599 17.8186C8.2532 18.5113 9.61175 18.8765 10.9949 18.8774C12.3781 18.8783 13.7371 18.5149 14.9353 17.8237C16.1334 17.1325 17.1283 16.138 17.8199 14.9401C18.5115 13.7422 18.8755 12.3833 18.875 11.0002Z" fill="#1A1A1A"/>
</svg>
